<svg width="328" height="162" viewBox="0 0 328 162" fill="none" xmlns="http://www.w3.org/2000/svg">
<path d="M297.991 0.611977C290.038 1.6354 285.945 4.48587 282.003 6.82806C270.308 12.8724 262.025 23.9308 262.025 23.9308C262.025 23.9308 256.93 30.7307 253.722 36.7201C246.855 35.683 238.346 36.3836 229.39 40.9168C216.273 47.5794 209.295 57.4152 209.295 57.4152C209.309 57.4083 209.316 57.3946 209.33 57.3877C206.624 59.9634 203.904 62.5391 203.149 63.2123C201.521 64.6684 189.159 75.5482 177.004 79.1268C164.855 82.6984 141.038 86.5792 136.079 87.06C133.243 87.3416 121.822 90.144 112.345 93.3791C88.3011 100.564 85.9592 113.806 80.884 125.929C78.2949 132.118 73.673 136.974 69.7378 140.257C56.1261 147.078 41.2712 143.863 28.0716 146.576C12.6811 149.743 0.0859375 160.265 0.0859375 160.265C5.62127 155.863 24.2739 150.917 33.2087 150.608C35.791 150.519 38.8676 150.436 41.5254 150.381C47.562 150.244 53.6399 149.001 59.3332 146.617C61.0776 145.889 62.6228 145.148 63.9826 144.426C63.1997 144.907 62.7397 145.161 62.7397 145.161C73.6318 140.36 82.7656 131.101 90.0659 114.534C93.6028 106.512 99.0421 101.264 103.705 97.9879C108.183 96.2433 116.067 94.0865 128.937 93.1661C152.885 91.449 176.805 93.4478 192.401 77.8904C204.145 66.1657 207.125 60.4717 211.074 55.8079C228.676 40.2506 236.938 39.969 251.202 42.5928C249.3 48.6783 248.881 56.275 252.067 64.5997C255.467 73.467 262.588 72.0658 263.474 71.8529C272.519 70.1495 280.506 61.1998 275.328 50.9724C271.75 43.8909 265.233 40.0995 260.006 38.2656C260.034 38.2106 260.047 38.1763 260.047 38.1763C260.047 38.1763 265.967 24.233 276.241 14.5964C282.663 8.57267 287.806 6.10684 290.766 5.09716C294.502 4.85676 299.193 5.16586 304.653 6.76624C316.534 10.2555 322.371 18.2711 321.671 23.7866C321.348 26.3829 320.497 28.9174 319.281 31.1497C314.309 33.8491 307.922 34.8931 299.976 31.4863C290.341 27.3514 289.688 18.697 289.688 18.697L284.002 24.2743C284.002 24.2743 289.159 35.4357 299.598 38.4854C307.441 40.7726 315.401 37.3314 316.458 36.8506C321.149 34.8793 327.783 30.5315 327.701 21.6711C327.577 9.18397 309.68 -0.899097 297.984 0.605122L297.991 0.611977ZM268.419 52.2706C270.809 55.4302 271.757 59.5032 270.644 63.4939C270.521 63.9266 270.383 64.3387 270.239 64.7302C268.048 66.2344 264.663 67.876 262.183 65.9253C258.887 63.3359 257.465 61.2066 256.538 54.4754C256.105 51.3021 256.861 47.5038 257.781 44.3649C263.069 46.446 266.4 49.5987 268.419 52.2637V52.2706Z" fill="url(#paint0_linear_1780_9836)"/>
<path d="M0.21875 160.465C0.253261 160.52 0.287789 160.575 0.3223 160.624C0.280887 160.568 0.246359 160.513 0.21875 160.465Z" fill="url(#paint1_linear_1780_9836)"/>
<path d="M0.507812 160.897C0.507812 160.897 0.522117 160.919 0.536393 160.933C0.529255 160.919 0.522089 160.905 0.507812 160.897Z" fill="url(#paint2_linear_1780_9836)"/>
<path d="M0.328125 160.622C0.383066 160.711 0.444889 160.801 0.513565 160.897C0.458624 160.814 0.396802 160.725 0.328125 160.622Z" fill="url(#paint3_linear_1780_9836)"/>
<path d="M0.195312 160.424C0.195312 160.424 0.20923 160.452 0.223206 160.466C0.216218 160.452 0.209288 160.438 0.195312 160.424Z" fill="url(#paint4_linear_1780_9836)"/>
<path d="M0.117188 160.307C0.145027 160.348 0.172864 160.39 0.200703 160.432C0.165904 160.376 0.138067 160.334 0.117188 160.307Z" fill="url(#paint5_linear_1780_9836)"/>
<path d="M0.101562 160.279C0.101562 160.279 0.101576 160.286 0.115257 160.3C0.115257 160.293 0.108403 160.286 0.101562 160.279Z" fill="url(#paint6_linear_1780_9836)"/>
<path d="M0.710938 161.199C0.710938 161.199 0.752327 161.261 0.773034 161.289C0.752327 161.261 0.731644 161.234 0.710938 161.199Z" fill="url(#paint7_linear_1780_9836)"/>
<path d="M0.867188 161.446C0.88841 161.482 0.895485 161.489 0.867188 161.446V161.446Z" fill="url(#paint8_linear_1780_9836)"/>
<path d="M0.765625 161.289C0.81394 161.358 0.848468 161.413 0.869175 161.448C0.848468 161.42 0.81394 161.365 0.765625 161.289Z" fill="url(#paint9_linear_1780_9836)"/>
<path d="M0.53125 160.932C0.53125 160.932 0.572633 160.987 0.586437 161.014C0.565731 160.987 0.551957 160.959 0.53125 160.932Z" fill="url(#paint10_linear_1780_9836)"/>
<path d="M0.585938 161.021C0.613777 161.062 0.634647 161.097 0.662487 161.132C0.641607 161.097 0.613777 161.062 0.585938 161.021Z" fill="url(#paint11_linear_1780_9836)"/>
<path d="M0.664062 161.124C0.664062 161.124 0.698621 161.172 0.712425 161.2C0.698621 161.179 0.677867 161.152 0.664062 161.124Z" fill="url(#paint12_linear_1780_9836)"/>
<defs>
<linearGradient id="paint0_linear_1780_9836" x1="-9.22831" y1="109.095" x2="332.467" y2="47.1915" gradientUnits="userSpaceOnUse">
<stop stop-color="#0092DC"/>
<stop offset="0.22" stop-color="#009CD4"/>
<stop offset="0.59" stop-color="#00B7C0"/>
<stop offset="1" stop-color="#00DCA5"/>
</linearGradient>
<linearGradient id="paint1_linear_1780_9836" x1="0.186837" y1="160.553" x2="0.261557" y2="160.539" gradientUnits="userSpaceOnUse">
<stop stop-color="#0092DC"/>
<stop offset="0.22" stop-color="#009CD4"/>
<stop offset="0.59" stop-color="#00B7C0"/>
<stop offset="1" stop-color="#00DCA5"/>
</linearGradient>
<linearGradient id="paint2_linear_1780_9836" x1="0.460766" y1="160.915" x2="0.474826" y2="160.912" gradientUnits="userSpaceOnUse">
<stop stop-color="#0092DC"/>
<stop offset="0.22" stop-color="#009CD4"/>
<stop offset="0.59" stop-color="#00B7C0"/>
<stop offset="1" stop-color="#00DCA5"/>
</linearGradient>
<linearGradient id="paint3_linear_1780_9836" x1="0.302457" y1="160.768" x2="0.430862" y2="160.745" gradientUnits="userSpaceOnUse">
<stop stop-color="#0092DC"/>
<stop offset="0.22" stop-color="#009CD4"/>
<stop offset="0.59" stop-color="#00B7C0"/>
<stop offset="1" stop-color="#00DCA5"/>
</linearGradient>
<linearGradient id="paint4_linear_1780_9836" x1="0.14352" y1="160.449" x2="0.164107" y2="160.445" gradientUnits="userSpaceOnUse">
<stop stop-color="#0092DC"/>
<stop offset="0.22" stop-color="#009CD4"/>
<stop offset="0.59" stop-color="#00B7C0"/>
<stop offset="1" stop-color="#00DCA5"/>
</linearGradient>
<linearGradient id="paint5_linear_1780_9836" x1="0.078096" y1="160.37" x2="0.132882" y2="160.361" gradientUnits="userSpaceOnUse">
<stop stop-color="#0092DC"/>
<stop offset="0.22" stop-color="#009CD4"/>
<stop offset="0.59" stop-color="#00B7C0"/>
<stop offset="1" stop-color="#00DCA5"/>
</linearGradient>
<linearGradient id="paint6_linear_1780_9836" x1="0.0498917" y1="160.298" x2="0.0633674" y2="160.295" gradientUnits="userSpaceOnUse">
<stop stop-color="#0092DC"/>
<stop offset="0.22" stop-color="#009CD4"/>
<stop offset="0.59" stop-color="#00B7C0"/>
<stop offset="1" stop-color="#00DCA5"/>
</linearGradient>
<linearGradient id="paint7_linear_1780_9836" x1="0.666285" y1="161.247" x2="0.707021" y2="161.239" gradientUnits="userSpaceOnUse">
<stop stop-color="#0092DC"/>
<stop offset="0.22" stop-color="#009CD4"/>
<stop offset="0.59" stop-color="#00B7C0"/>
<stop offset="1" stop-color="#00DCA5"/>
</linearGradient>
<linearGradient id="paint8_linear_1780_9836" x1="0.821176" y1="161.462" x2="0.835098" y2="161.46" gradientUnits="userSpaceOnUse">
<stop stop-color="#0092DC"/>
<stop offset="0.22" stop-color="#009CD4"/>
<stop offset="0.59" stop-color="#00B7C0"/>
<stop offset="1" stop-color="#00DCA5"/>
</linearGradient>
<linearGradient id="paint9_linear_1780_9836" x1="0.731094" y1="161.375" x2="0.805813" y2="161.362" gradientUnits="userSpaceOnUse">
<stop stop-color="#0092DC"/>
<stop offset="0.22" stop-color="#009CD4"/>
<stop offset="0.59" stop-color="#00B7C0"/>
<stop offset="1" stop-color="#00DCA5"/>
</linearGradient>
<linearGradient id="paint10_linear_1780_9836" x1="0.484109" y1="160.979" x2="0.524838" y2="160.972" gradientUnits="userSpaceOnUse">
<stop stop-color="#0092DC"/>
<stop offset="0.22" stop-color="#009CD4"/>
<stop offset="0.59" stop-color="#00B7C0"/>
<stop offset="1" stop-color="#00DCA5"/>
</linearGradient>
<linearGradient id="paint11_linear_1780_9836" x1="0.543646" y1="161.08" x2="0.598427" y2="161.07" gradientUnits="userSpaceOnUse">
<stop stop-color="#0092DC"/>
<stop offset="0.22" stop-color="#009CD4"/>
<stop offset="0.59" stop-color="#00B7C0"/>
<stop offset="1" stop-color="#00DCA5"/>
</linearGradient>
<linearGradient id="paint12_linear_1780_9836" x1="0.617708" y1="161.165" x2="0.651697" y2="161.159" gradientUnits="userSpaceOnUse">
<stop stop-color="#0092DC"/>
<stop offset="0.22" stop-color="#009CD4"/>
<stop offset="0.59" stop-color="#00B7C0"/>
<stop offset="1" stop-color="#00DCA5"/>
</linearGradient>
</defs>
</svg>
