<svg width="61" height="81" viewBox="0 0 61 81" fill="none" xmlns="http://www.w3.org/2000/svg">
<path d="M9.88684 26.4803C9.80442 26.4048 9.72203 26.3292 9.64648 26.2536L10.0517 26.6727L10.0654 26.6863L15.4771 32.2362C15.6282 32.3667 15.7931 32.4972 15.951 32.6277L15.9922 32.6689C15.9922 32.6689 15.9784 32.6483 15.9716 32.6414C24.3226 39.5993 37.4124 42.91 46.9997 49.9846C50.2275 56.496 50.0695 69.5669 54.7327 74.3543L60.6251 80.3987C56.7174 76.3943 55.7766 58.4398 51.2165 53.6112C51.2439 53.6387 51.2714 53.6662 51.2989 53.6937C51.2989 53.6937 46.8211 49.1055 45.4613 47.7043C37.021 39.043 21.8847 33.1429 14.0418 29.0698C11.5763 22.3042 10.2234 9.70724 6.4805 5.86084L0.773438 0.00878906C5.62887 4.98164 4.77043 20.8481 9.88684 26.4666V26.4803Z" fill="url(#paint0_linear_1780_9834)"/>
<defs>
<linearGradient id="paint0_linear_1780_9834" x1="25.2039" y1="74.4351" x2="36.7778" y2="6.16032" gradientUnits="userSpaceOnUse">
<stop stop-color="#0092DC"/>
<stop offset="0.22" stop-color="#009CD4"/>
<stop offset="0.59" stop-color="#00B7C0"/>
<stop offset="1" stop-color="#00DCA5"/>
</linearGradient>
</defs>
</svg>
