<svg width="229" height="173" viewBox="0 0 229 173" fill="none" xmlns="http://www.w3.org/2000/svg">
<path d="M2.43127 172.095L10.542 165.577C6.0574 153.316 12.2108 139.6 18.7282 131.9C26.2415 132.491 42.9093 149.69 49.7357 144.518L49.8181 144.456C49.7563 144.504 49.7014 144.559 49.6396 144.607C49.6396 144.607 52.73 142.835 57.1803 139.133C71.2178 127.449 63.2169 97.7634 71.0117 83.6966C87.7139 83.3875 125.568 117.064 141.982 103.409C141.982 103.409 149.53 98.3335 153.973 94.6382C164.707 85.7091 147.909 39.978 159.543 21.8518C175.359 15.5052 205.989 18.8708 219.676 8.11463L228.934 0.84082C212.836 13.4996 180.366 5.44963 162.462 18.4313C162.544 18.3557 162.626 18.2802 162.709 18.2115C162.709 18.2115 152.462 25.8218 149.186 28.5487C134.51 40.761 155.505 84.198 144.468 100.628C125.04 105.772 87.5903 69.3893 75.2148 78.8405L72.241 80.9697C70.8469 81.9588 69.0819 83.2158 67.4268 84.4178L67.2414 84.5551C66.0052 85.4549 64.8446 86.3066 63.9655 86.9866C55.2093 93.7041 58.9727 125.169 53.3275 139.229C45.5121 136.701 28.9885 123.239 22.7252 127.965C22.7252 127.965 15.2189 133.137 11.8812 135.76C4.8693 141.262 -2.97358 157.307 2.43127 172.095Z" fill="url(#paint0_linear_1780_9833)"/>
<defs>
<linearGradient id="paint0_linear_1780_9833" x1="171.903" y1="114.05" x2="49.2343" y2="53.8908" gradientUnits="userSpaceOnUse">
<stop stop-color="#0092DC"/>
<stop offset="0.22" stop-color="#009CD4"/>
<stop offset="0.59" stop-color="#00B7C0"/>
<stop offset="1" stop-color="#00DCA5"/>
</linearGradient>
</defs>
</svg>
