<svg width="60" height="81" viewBox="0 0 60 81" fill="none" xmlns="http://www.w3.org/2000/svg">
<path d="M9.1993 27.0321C9.11688 26.9565 9.03449 26.881 8.95894 26.8054L9.36415 27.2244L9.37786 27.2381L14.7896 32.7879C14.9407 32.9184 15.1055 33.0489 15.2635 33.1794L15.3047 33.2207C15.3047 33.2207 15.2909 33.2001 15.2841 33.1932C23.6351 40.1511 36.7249 43.4617 46.3122 50.5364C49.54 57.0478 49.382 70.1187 54.0452 74.9061L59.9376 80.9504C56.0299 76.9461 55.089 58.9916 50.5289 54.163C50.5564 54.1904 50.5839 54.2179 50.6113 54.2454C50.6113 54.2454 46.1336 49.6503 44.7738 48.256C36.3335 39.5947 21.1971 33.6946 13.3543 29.6215C10.8888 22.856 9.53584 10.259 5.79296 6.41257L0.0859375 0.560547C4.94137 5.5334 4.08289 21.3998 9.1993 27.0183V27.0321Z" fill="url(#paint0_linear_1780_9835)"/>
<defs>
<linearGradient id="paint0_linear_1780_9835" x1="0.0928052" y1="40.7624" x2="59.9444" y2="40.7624" gradientUnits="userSpaceOnUse">
<stop stop-color="#E55724"/>
<stop offset="0.24" stop-color="#E8701C"/>
<stop offset="0.76" stop-color="#F2B009"/>
<stop offset="1" stop-color="#F7D100"/>
</linearGradient>
</defs>
</svg>
