<svg width="345" height="266" viewBox="0 0 345 266" fill="none" xmlns="http://www.w3.org/2000/svg">
<path d="M0.667756 0.840781C44.3598 32.1753 57.3191 10.8346 74.1449 40.7541C85.7855 62.0193 92.1656 84.9534 117.404 101.411C141.592 117.909 198.333 126.955 208.882 136.399C227.527 152.952 219.911 209.426 234.532 218.994C256.989 232.511 314.19 153.99 338.797 190.338C351.55 209.749 341.743 252.952 333.289 265.467L332.074 264.649C343.79 246.64 353.095 176.278 315.207 185.963C290.421 192.22 259.338 233.033 235.61 227.291C207.02 220.986 223.88 146.489 200.53 137.979C158.83 122.786 146.612 121.247 129.945 113.822C73.671 88.0581 82.3448 35.8431 54.0707 25.8356C41.9012 21.4328 27.4516 23.2942 0.296875 1.32159C0.777611 0.68968 0.626556 0.827072 0.67463 0.827072L0.667756 0.840781Z" fill="url(#paint0_linear_1780_9926)"/>
<defs>
<linearGradient id="paint0_linear_1780_9926" x1="343.769" y1="131.59" x2="1.05123" y2="134.581" gradientUnits="userSpaceOnUse">
<stop stop-color="#E55724"/>
<stop offset="0.24" stop-color="#E8701C"/>
<stop offset="0.76" stop-color="#F2B009"/>
<stop offset="1" stop-color="#F7D100"/>
</linearGradient>
</defs>
</svg>
