<svg width="57" height="96" viewBox="0 0 57 96" fill="none" xmlns="http://www.w3.org/2000/svg">
<path d="M56.8934 0.721719C53.2124 7.62465 40.6239 9.80884 36.3797 17.1101C36.4003 17.0689 36.414 17.0209 36.4346 16.9728C36.4346 16.9728 34.0241 21.2038 33.303 22.6668C30.0546 29.192 44.0715 41.1365 42.7392 48.5683C36.7437 53.3488 18.0706 46.4046 15.2068 51.611L14.4925 52.813C14.1629 53.3694 13.7439 54.07 13.3524 54.7363L13.2975 54.8256C13.0022 55.327 12.7275 55.8077 12.5284 56.1786C10.5024 59.8739 16.649 70.2798 16.8413 76.0632C13.7234 76.3791 5.8873 74.2224 4.42449 76.8393C4.42449 76.8393 2.59768 79.7997 1.83536 81.2284C0.2352 84.2299 -0.0394526 91.0368 4.12235 95.3708L5.95596 91.8472C2.5084 88.255 2.54273 82.5265 3.63469 78.8312C6.34055 77.8765 14.8153 81.3177 16.4017 78.4604C16.3949 78.4741 16.388 78.4947 16.3811 78.5084C16.3811 78.5084 17.1915 77.4163 18.1736 75.4382C21.2846 69.1946 13.9225 60.0594 14.4856 53.9464C20.2819 51.2745 38.6667 57.2089 42.2996 49.9145C42.2996 49.9145 44.1539 46.9816 45.136 45.0035C47.5122 40.2298 34.6148 26.8498 35.8922 18.7242C40.4385 14.0742 51.6466 10.5369 54.7782 4.67803L56.8934 0.714844V0.721719Z" fill="url(#paint0_linear_1780_9830)"/>
<defs>
<linearGradient id="paint0_linear_1780_9830" x1="43.9268" y1="72.4286" x2="16.1471" y2="23.6333" gradientUnits="userSpaceOnUse">
<stop stop-color="#7E4FFF"/>
<stop offset="1" stop-color="#F211B4"/>
</linearGradient>
</defs>
</svg>
