<svg width="403" height="225" viewBox="0 0 403 225" fill="none" xmlns="http://www.w3.org/2000/svg">
<path d="M401.656 224.677C385.428 208.316 367.984 190.753 344.847 185.244C325.397 181.034 305.364 184.138 285.853 186.57C276.891 187.696 267.826 189.139 258.706 189.091C255.904 189.029 253.012 188.823 250.293 187.916C245.424 186.378 242.251 181.604 241.454 176.755C240.774 172.991 240.96 169.151 241.715 165.435C242.855 160.133 244.929 154.988 245.781 149.761C247.958 138.181 240.754 130.598 229.752 128.736C215.899 126.957 202.253 135.234 190.942 142.487C181.369 148.394 167.977 159.741 156.817 161.005C146.062 161.994 142.642 152.976 141.777 143.978C140.905 134.733 141.777 125.378 142.697 116.325C144.18 102.011 146.584 87.6897 147.381 73.4168C147.58 68.65 148.253 55.2494 143.411 53.3331C136.111 52.1036 118.942 66.5414 112.637 71.3425C98.4831 82.4559 84.8095 94.943 69.0139 104.188C67.3726 105.102 65.6831 105.96 63.9044 106.723C54.0218 111.091 46.5636 108.879 44.3453 97.4981C43.2465 91.962 43.2739 86.3023 43.3495 80.7662C43.6723 62.8323 46.0279 44.713 43.2465 26.944C41.8317 18.4956 38.913 9.47718 31.7019 4.24332C27.0594 0.486202 22.4443 1.90113 17.74 4.92331C11.7308 8.8384 6.75172 14.2921 0.742514 18.2964L0.460938 17.8775C6.25038 13.6121 10.8792 7.95236 16.909 3.6801C21.3043 0.541156 26.7366 -1.49194 31.7294 1.72942C33.776 2.91082 35.6234 4.44251 37.2167 6.18713C46.9893 17.1906 47.8272 34.2384 48.2599 48.2503C48.4865 59.1508 47.8684 69.9551 47.8684 80.8006C48.0126 86.7762 47.7654 98.0544 51.886 102.45C59.0078 109.037 85.5444 85.4712 92.0549 80.3747C103.352 71.1502 114.134 61.5136 126.379 53.3331C130.864 50.4895 136.111 47.1994 141.756 46.7049C150.629 46.1692 153.404 55.4074 153.891 62.4683C154.221 66.3147 154.152 70.0512 153.967 73.7534C153.108 88.3629 150.581 102.615 148.837 117.025C147.731 127.528 146.131 138.071 148.102 148.415C148.603 150.551 149.249 152.378 150.547 153.958L150.876 154.294L151.041 154.466L151.22 154.603C153.953 156.774 157.909 155.95 161.054 154.919C164.207 153.841 167.331 152.213 170.401 150.462C179.645 145.084 188.607 138.545 198.167 133.428C207.899 128.221 219.038 123.64 230.308 125.357C243.068 127.624 251.433 136.972 248.816 150.283C247.278 159.075 242.519 167.214 244.18 176.26C245.691 184.482 251.076 186.46 258.774 186.577C267.743 186.721 276.63 185.388 285.586 184.365C305.289 182.112 325.61 179.207 345.224 183.692C354.056 185.869 362.428 190.045 369.907 195.162C381.932 203.343 392.055 213.866 402.027 224.34L401.663 224.691L401.656 224.677Z" fill="url(#paint0_linear_1780_9937)"/>
<defs>
<linearGradient id="paint0_linear_1780_9937" x1="241.15" y1="268.823" x2="158.672" y2="-35.5471" gradientUnits="userSpaceOnUse">
<stop stop-color="#7E4FFF"/>
<stop offset="1" stop-color="#F211B4"/>
</linearGradient>
</defs>
</svg>
