<svg width="48" height="54" viewBox="0 0 48 54" fill="none" xmlns="http://www.w3.org/2000/svg">
<path d="M2.37254 51.7021C1.06768 49.6278 2.10476 46.3515 3.37528 44.2565C5.06472 43.7414 9.21272 45.7676 10.6069 44.1535L10.6206 44.1329C10.6206 44.1329 10.5932 44.1604 10.5863 44.181C10.5863 44.181 11.2319 43.5628 12.1384 42.4432C14.9885 38.9128 12.4681 33.6377 13.8622 30.1553C17.5845 28.6786 26.8626 32.2159 30.1934 28.0879C30.1934 28.0879 31.7525 26.4326 32.659 25.313C34.836 22.6136 29.96 14.8727 32.1164 10.2502C35.4953 7.63324 42.4179 5.71005 45.2061 2.39252L47.0947 0.146484C43.812 4.04784 36.3606 5.18802 32.6795 9.30917C32.6933 9.28857 32.7139 9.26796 32.7277 9.24048C32.7277 9.24048 30.6261 11.6376 29.96 12.4619C26.9863 16.1571 32.7414 23.0807 30.6742 27.3117C26.4644 29.9905 17.2067 25.8762 14.6725 28.8228L14.0613 29.5028C13.7729 29.8188 13.4089 30.224 13.0724 30.6018L13.0312 30.643C12.7771 30.9246 12.5367 31.1994 12.3581 31.4054C10.5657 33.4935 12.1796 39.4829 11.2662 42.7798C9.46002 42.9378 5.43558 41.6396 4.1582 43.1163C4.1582 43.1163 2.60611 44.7923 1.92621 45.5959C0.497736 47.2925 -0.862075 51.1732 0.71062 53.6802L2.36567 51.6883L2.37254 51.7021Z" fill="url(#paint0_linear_1780_9832)"/>
<defs>
<linearGradient id="paint0_linear_1780_9832" x1="48.9964" y1="3.44552" x2="-2.98917" y2="49.7924" gradientUnits="userSpaceOnUse">
<stop stop-color="#7E4FFF"/>
<stop offset="1" stop-color="#F211B4"/>
</linearGradient>
</defs>
</svg>
