<svg width="113" height="183" viewBox="0 0 113 183" fill="none" xmlns="http://www.w3.org/2000/svg">
<path d="M89.4908 1.68848C88.4676 3.46744 112.161 21.3807 110.884 23.8259L107.505 29.8634C108.322 28.4966 84.7591 10.3292 86.009 7.92515L89.4908 1.68848Z" fill="url(#paint0_linear_1876_7783)"/>
<path d="M89.5179 1.6405C90.7609 -0.584926 106.412 1.23525 112.428 4.59399L108.974 10.7688C102.958 7.41011 87.4026 5.41135 86.0703 7.80161C86.0703 7.80161 88.9204 2.69826 89.5179 1.63363V1.6405Z" fill="url(#paint1_linear_1876_7783)"/>
<path d="M78.4323 20.1582C76.6192 23.407 96.4392 35.8186 94.6193 39.0674L91.2405 45.1049C92.0577 43.7381 73.0137 29.8498 75.1152 26.0858L78.4254 20.1582H78.4323Z" fill="url(#paint2_linear_1876_7783)"/>
<path d="M71.5619 43.333C69.2406 47.4817 72.9629 71.9819 63.8633 86.8386L60.4844 92.8693C63.3894 87.6766 60.8141 62.5651 68.08 49.5628L71.5688 43.3262L71.5619 43.333Z" fill="url(#paint3_linear_1876_7783)"/>
<path d="M10.8182 135.296C8.5038 139.445 12.7068 161.658 4.30079 176.693L0.921875 182.723C5.31718 174.866 1.60174 151.781 7.32937 141.526L10.8182 135.289V135.296Z" fill="url(#paint4_linear_1876_7783)"/>
<path d="M78.4283 20.1583C78.964 19.2035 86.6283 20.069 95 23.0637C101.236 25.296 110.404 24.6984 110.892 23.8261C110.892 23.8261 108.344 28.38 107.575 29.7674C106.867 31.0244 97.9256 31.2304 91.6898 29.005C84.7191 26.5255 75.7088 25.0418 75.125 26.0859C75.125 26.0859 77.8652 21.1748 78.4352 20.1583H78.4283Z" fill="url(#paint5_linear_1876_7783)"/>
<path d="M71.722 43.0507C72.7933 41.1344 76.9276 40.6605 83.7472 42.0136C90.505 43.353 94.0693 40.0629 94.5776 39.1562C94.5776 39.1562 91.9335 43.8956 91.13 45.3311C90.3951 46.643 87.0437 49.6102 80.2997 48.1953C73.6312 46.7941 69.2633 47.4672 68.2812 49.2256C68.2812 49.2256 71.1313 44.1154 71.7288 43.0576L71.722 43.0507Z" fill="url(#paint6_linear_1876_7783)"/>
<path d="M10.5413 135.79C18.1232 122.225 58.5875 96.2892 64.3426 85.9863C64.3426 85.9863 61.6985 90.7256 60.895 92.1612C46.7133 117.547 9.40815 137.824 7.09375 141.965L10.5413 135.79Z" fill="url(#paint7_linear_1876_7783)"/>
<defs>
<linearGradient id="paint0_linear_1876_7783" x1="86.4868" y1="4.18504" x2="109.402" y2="25.3301" gradientUnits="userSpaceOnUse">
<stop stop-color="#FF5F7F"/>
<stop offset="0.53" stop-color="#FF859E"/>
<stop offset="1" stop-color="#FF5F7F"/>
</linearGradient>
<linearGradient id="paint1_linear_1876_7783" x1="89.8516" y1="3.46938" x2="111.172" y2="7.58207" gradientUnits="userSpaceOnUse">
<stop stop-color="#C7122D"/>
<stop offset="0.5" stop-color="#FF6685"/>
<stop offset="1" stop-color="#D43845"/>
</linearGradient>
<linearGradient id="paint2_linear_1876_7783" x1="76.3389" y1="23.4983" x2="93.5768" y2="41.5688" gradientUnits="userSpaceOnUse">
<stop stop-color="#FF5F7F"/>
<stop offset="0.53" stop-color="#FF859E"/>
<stop offset="1" stop-color="#FF5F7F"/>
</linearGradient>
<linearGradient id="paint3_linear_1876_7783" x1="71.1186" y1="40.988" x2="63.1525" y2="88.1404" gradientUnits="userSpaceOnUse">
<stop stop-color="#FF5F7F"/>
<stop offset="0.53" stop-color="#FF859E"/>
<stop offset="1" stop-color="#FF5F7F"/>
</linearGradient>
<linearGradient id="paint4_linear_1876_7783" x1="1.57316" y1="184.202" x2="10.5324" y2="137.853" gradientUnits="userSpaceOnUse">
<stop stop-color="#FF5F7F"/>
<stop offset="0.53" stop-color="#FF859E"/>
<stop offset="1" stop-color="#FF5F7F"/>
</linearGradient>
<linearGradient id="paint5_linear_1876_7783" x1="76.9253" y1="20.9573" x2="112.281" y2="28.982" gradientUnits="userSpaceOnUse">
<stop stop-color="#C7122D"/>
<stop offset="0.5" stop-color="#FF6685"/>
<stop offset="1" stop-color="#D43845"/>
</linearGradient>
<linearGradient id="paint6_linear_1876_7783" x1="71.7021" y1="43.1341" x2="92.1205" y2="44.6815" gradientUnits="userSpaceOnUse">
<stop stop-color="#C7122D"/>
<stop offset="0.5" stop-color="#FF6685"/>
<stop offset="1" stop-color="#D43845"/>
</linearGradient>
<linearGradient id="paint7_linear_1876_7783" x1="8.61468" y1="141.313" x2="64.8736" y2="87.179" gradientUnits="userSpaceOnUse">
<stop stop-color="#C7122D"/>
<stop offset="0.5" stop-color="#FF6685"/>
<stop offset="1" stop-color="#D43845"/>
</linearGradient>
</defs>
</svg>
