<svg width="1919" height="828" viewBox="0 0 1919 828" fill="none" xmlns="http://www.w3.org/2000/svg">
<g opacity="0.8" clip-path="url(#clip0_1734_7869)">
<path d="M1918.72 750.638H1916.06V748.083H1918.72V750.638ZM1908.36 750.562C1905.81 750.536 1903.25 750.46 1900.67 750.408L1900.75 747.853C1903.3 747.929 1905.86 747.981 1908.42 748.006L1908.36 750.562ZM1892.97 750.178C1890.42 750.076 1887.86 749.974 1885.3 749.846L1885.43 747.291C1887.99 747.418 1890.55 747.521 1893.08 747.597L1892.97 750.153V750.178ZM1877.63 749.463C1875.08 749.309 1872.52 749.156 1869.96 748.977L1870.14 746.422C1872.7 746.601 1875.23 746.754 1877.79 746.907L1877.63 749.463ZM1862.3 748.441C1859.74 748.236 1857.21 748.032 1854.65 747.802L1854.88 745.246C1857.44 745.476 1859.97 745.681 1862.53 745.885L1862.32 748.441H1862.3ZM1846.98 747.112C1844.45 746.856 1841.89 746.601 1839.34 746.319L1839.62 743.789C1842.17 744.071 1844.71 744.326 1847.24 744.556L1846.98 747.112ZM1831.72 745.476C1829.19 745.169 1826.63 744.863 1824.1 744.556L1824.41 742.026C1826.94 742.333 1829.47 742.665 1832 742.946L1831.69 745.476H1831.72ZM1816.48 743.559C1813.95 743.227 1811.42 742.869 1808.86 742.512L1809.22 739.982C1811.75 740.34 1814.28 740.697 1816.81 741.03L1816.48 743.559ZM1801.27 741.387C1798.74 741.004 1796.21 740.595 1793.68 740.186L1794.09 737.656C1796.62 738.065 1799.15 738.448 1801.65 738.832L1801.27 741.362V741.387ZM1786.11 738.934C1783.58 738.5 1781.07 738.065 1778.54 737.631L1779 735.126C1781.51 735.586 1784.04 736.021 1786.54 736.43L1786.11 738.96V738.934ZM1771 736.251C1768.49 735.791 1765.96 735.305 1763.46 734.82L1763.94 732.315C1766.45 732.801 1768.95 733.286 1771.46 733.746L1771 736.251ZM1755.92 733.312C1753.41 732.801 1750.9 732.29 1748.4 731.753L1748.94 729.248C1751.44 729.785 1753.95 730.296 1756.43 730.807L1755.92 733.312ZM1740.88 730.143C1738.38 729.606 1735.9 729.044 1733.39 728.482L1733.95 726.003C1736.46 726.565 1738.94 727.127 1741.42 727.664L1740.88 730.168V730.143ZM1725.9 726.744C1723.42 726.156 1720.92 725.569 1718.44 724.981L1719.02 722.502C1721.5 723.115 1723.98 723.703 1726.49 724.265L1725.9 726.744ZM1710.97 723.141C1708.49 722.527 1706.01 721.889 1703.53 721.25L1704.17 718.771C1706.65 719.41 1709.13 720.023 1711.58 720.636L1710.97 723.115V723.141ZM1696.09 719.333C1693.61 718.694 1691.16 718.03 1688.68 717.34L1689.34 714.886C1691.82 715.551 1694.28 716.215 1696.73 716.854L1696.07 719.333H1696.09ZM1681.26 715.321C1678.81 714.631 1676.33 713.941 1673.87 713.251L1674.56 710.798C1677.02 711.488 1679.47 712.178 1681.93 712.868L1681.24 715.321H1681.26ZM1666.49 711.13C1664.03 710.414 1661.58 709.699 1659.12 708.958L1659.86 706.504C1662.32 707.245 1664.77 707.961 1667.2 708.676L1666.49 711.13ZM1651.76 706.734C1649.33 705.993 1646.88 705.252 1644.42 704.485L1645.19 702.032C1647.64 702.799 1650.07 703.54 1652.5 704.281L1651.76 706.734ZM1637.11 702.185C1634.68 701.419 1632.23 700.626 1629.8 699.834L1630.59 697.406C1633.02 698.199 1635.45 698.965 1637.88 699.758L1637.11 702.185ZM1622.51 697.458C1620.08 696.665 1617.65 695.848 1615.23 695.03L1616.04 692.602C1618.47 693.42 1620.9 694.212 1623.3 695.03L1622.51 697.458ZM1607.97 692.577C1605.54 691.759 1603.13 690.915 1600.7 690.072L1601.55 687.644C1603.98 688.488 1606.38 689.331 1608.78 690.149L1607.97 692.577ZM1593.47 687.542C1591.07 686.673 1588.66 685.83 1586.23 684.961L1587.1 682.559C1589.51 683.428 1591.91 684.271 1594.31 685.14L1593.47 687.542ZM1579.02 682.354C1576.62 681.486 1574.22 680.591 1571.82 679.697L1572.71 677.294C1575.11 678.189 1577.52 679.058 1579.89 679.952L1579.02 682.354ZM1564.63 677.013C1562.23 676.119 1559.85 675.199 1557.45 674.304L1558.37 671.928C1560.74 672.848 1563.15 673.742 1565.53 674.637L1564.63 677.039V677.013ZM1550.29 671.544C1547.91 670.624 1545.53 669.704 1543.13 668.759L1544.08 666.382C1546.45 667.328 1548.83 668.248 1551.21 669.168L1550.29 671.544ZM1536 665.948C1533.62 665.002 1531.24 664.057 1528.86 663.086L1529.84 660.709C1532.21 661.68 1534.59 662.626 1536.94 663.571L1536 665.948ZM1521.76 660.198C1519.4 659.227 1517.03 658.256 1514.65 657.285L1515.62 654.933C1517.97 655.905 1520.35 656.876 1522.7 657.847L1521.73 660.223L1521.76 660.198ZM1507.57 654.346C1505.22 653.349 1502.86 652.378 1500.49 651.381L1501.48 649.03C1503.84 650.027 1506.19 651.023 1508.54 651.995L1507.54 654.346H1507.57ZM1493.43 648.366C1491.08 647.369 1488.73 646.347 1486.37 645.325L1487.4 642.974C1489.75 643.996 1492.1 644.992 1494.43 646.015L1493.43 648.366ZM1479.34 642.284C1476.99 641.261 1474.66 640.239 1472.31 639.191L1473.34 636.866C1475.69 637.914 1478.01 638.936 1480.34 639.958L1479.32 642.309L1479.34 642.284ZM1465.31 636.074L1458.3 632.93L1459.35 630.605L1466.36 633.748L1465.31 636.074ZM1451.32 629.761C1449 628.714 1446.67 627.64 1444.34 626.567L1445.42 624.241C1447.74 625.315 1450.07 626.363 1452.4 627.436L1451.35 629.761H1451.32ZM1437.39 623.347L1430.44 620.101L1431.51 617.776L1438.46 621.021L1437.39 623.347ZM1423.51 616.83C1421.21 615.731 1418.88 614.633 1416.58 613.534L1417.68 611.234C1419.98 612.333 1422.31 613.431 1424.61 614.53L1423.51 616.83ZM1409.65 610.212C1407.35 609.113 1405.05 607.988 1402.75 606.864L1403.87 604.564C1406.17 605.688 1408.47 606.787 1410.78 607.912L1409.68 610.212H1409.65ZM1395.84 603.516C1393.54 602.392 1391.27 601.267 1388.97 600.143L1390.09 597.843C1392.39 598.967 1394.67 600.092 1396.97 601.216L1395.84 603.516ZM1382.09 596.718L1375.21 593.294L1376.36 591.019L1383.22 594.444L1382.06 596.718H1382.09ZM1368.36 589.844L1361.51 586.368L1362.66 584.094L1369.49 587.569L1368.34 589.844H1368.36ZM1354.68 582.893L1347.86 579.392L1349.03 577.117L1355.86 580.618L1354.68 582.893ZM1341.06 575.865C1338.78 574.69 1336.53 573.514 1334.26 572.313L1335.43 570.038C1337.71 571.214 1339.96 572.415 1342.23 573.591L1341.06 575.865ZM1327.46 568.761C1325.21 567.585 1322.93 566.384 1320.68 565.183L1321.88 562.934C1324.13 564.135 1326.41 565.336 1328.66 566.512L1327.48 568.761H1327.46ZM1313.91 561.58L1307.13 557.951L1308.33 555.702L1315.08 559.305L1313.88 561.554L1313.91 561.58ZM1300.38 554.322L1293.63 550.667L1294.86 548.419L1301.61 552.073L1300.38 554.322ZM1286.91 546.987L1280.18 543.282L1281.41 541.033L1288.14 544.713L1286.91 546.962V546.987ZM1273.46 539.576L1266.76 535.845L1268.02 533.622L1274.71 537.353L1273.49 539.602L1273.46 539.576ZM1260.06 532.114L1253.37 528.358L1254.62 526.134L1261.29 529.891L1260.04 532.114H1260.06ZM1246.69 524.575L1240.02 520.793L1241.27 518.57L1247.95 522.352L1246.69 524.575ZM1233.35 516.985L1226.7 513.178L1227.98 510.954L1234.63 514.762L1233.35 516.985ZM1220.05 509.344L1213.41 505.511L1214.68 503.313L1221.31 507.147L1220.03 509.37L1220.05 509.344ZM1206.79 501.627L1200.16 497.742L1201.47 495.545L1208.09 499.403L1206.81 501.601L1206.79 501.627ZM1193.54 493.858L1186.95 489.948L1188.25 487.75L1194.85 491.635L1193.54 493.832V493.858ZM1180.35 486.038L1173.75 482.102L1175.06 479.905L1181.65 483.84L1180.35 486.038ZM1167.18 478.167L1160.61 474.206L1161.94 472.008L1168.51 475.944L1167.21 478.141L1167.18 478.167ZM1154.04 470.245L1147.47 466.258L1148.8 464.086L1155.35 468.047L1154.02 470.245H1154.04ZM1140.93 462.271L1134.38 458.285L1135.71 456.113L1142.26 460.099L1140.93 462.271ZM1127.84 454.273L1121.32 450.26L1122.67 448.088L1129.19 452.1L1127.86 454.273H1127.84ZM1114.77 446.223L1108.25 442.185L1109.61 440.013L1116.13 444.05L1114.77 446.223ZM1101.73 438.122L1095.24 434.058L1096.6 431.886L1103.09 435.949L1101.73 438.122ZM1088.75 429.969L1082.25 425.88L1083.61 423.708L1090.1 427.797L1088.75 429.969ZM1075.76 421.792L1069.27 417.677L1070.65 415.531L1077.11 419.645L1075.73 421.792H1075.76ZM1062.8 413.563L1056.33 409.423L1057.71 407.276L1064.18 411.391L1062.8 413.537V413.563ZM1049.89 405.308L1043.42 401.168L1044.8 399.022L1051.24 403.162L1049.86 405.308H1049.89ZM1036.98 397.003L1030.53 392.837L1031.91 390.691L1038.36 394.856L1036.98 397.003ZM1024.09 388.672L1017.67 384.481L1019.05 382.334L1025.47 386.525L1024.09 388.672ZM1011.23 380.29L1004.81 376.099L1006.22 373.952L1012.64 378.143L1011.23 380.29ZM998.397 371.882L991.98 367.665L993.386 365.544L999.778 369.761L998.372 371.908L998.397 371.882ZM985.589 363.449L979.197 359.258L980.603 357.111L986.995 361.328L985.589 363.449ZM972.78 355.041L966.363 350.85L967.769 348.703L974.186 352.894L972.78 355.041ZM959.946 346.659L953.529 342.493L954.91 340.347L961.352 344.538L959.946 346.684V346.659ZM947.086 338.328L940.644 334.162L942.024 332.016L948.467 336.181L947.086 338.328ZM934.201 330.022L927.759 325.882L929.139 323.736L935.607 327.876L934.227 330.022H934.201ZM921.29 321.768L914.822 317.653L916.203 315.507L922.671 319.621L921.29 321.768ZM908.354 313.565L901.86 309.476L903.215 307.304L909.709 311.392L908.354 313.565ZM895.367 305.412L888.873 301.349L890.228 299.177L896.747 303.24L895.392 305.412H895.367ZM882.354 297.311L875.834 293.274L877.164 291.101L883.683 295.139L882.328 297.311H882.354ZM869.315 289.261L862.77 285.275L864.099 283.103L870.644 287.115L869.315 289.287V289.261ZM856.225 281.288L849.655 277.327L850.984 275.129L857.555 279.09L856.225 281.288ZM843.084 273.392L836.514 269.456L837.818 267.258L844.414 271.194L843.11 273.392H843.084ZM829.918 265.572L823.322 261.687L824.626 259.489L831.247 263.374L829.943 265.572H829.918ZM816.7 257.828C814.476 256.551 812.277 255.273 810.079 253.995L811.357 251.772C813.556 253.049 815.78 254.327 818.004 255.605L816.726 257.803L816.7 257.828ZM803.432 250.162C801.207 248.884 798.983 247.632 796.784 246.379L798.037 244.156C800.261 245.408 802.486 246.686 804.71 247.964L803.432 250.187V250.162ZM790.112 242.597C787.888 241.345 785.663 240.093 783.413 238.841L784.666 236.617C786.891 237.87 789.115 239.122 791.365 240.374L790.112 242.597ZM776.715 235.135C774.465 233.908 772.241 232.656 769.991 231.43L771.219 229.181C773.468 230.407 775.693 231.634 777.942 232.886L776.715 235.135ZM763.268 227.775C761.018 226.548 758.768 225.347 756.518 224.146L757.72 221.897C759.97 223.099 762.219 224.325 764.469 225.552L763.242 227.801L763.268 227.775ZM749.769 220.517C747.519 219.316 745.244 218.115 742.994 216.94L744.17 214.691C746.42 215.866 748.695 217.067 750.945 218.269L749.743 220.517H749.769ZM736.193 213.387C733.918 212.212 731.643 211.036 729.393 209.861L730.569 207.586C732.844 208.762 735.119 209.937 737.395 211.113L736.219 213.387H736.193ZM722.567 206.385C720.291 205.235 717.99 204.085 715.715 202.935L716.865 200.661C719.141 201.811 721.442 202.961 723.717 204.111L722.567 206.385ZM708.863 199.511C706.562 198.386 704.287 197.236 701.986 196.138L703.111 193.838C705.412 194.962 707.713 196.086 709.988 197.236L708.863 199.536V199.511ZM695.109 192.79C692.808 191.691 690.507 190.567 688.206 189.493L689.305 187.193C691.606 188.292 693.907 189.391 696.234 190.515L695.134 192.815L695.109 192.79ZM681.278 186.222C678.951 185.149 676.65 184.05 674.324 183.002L675.398 180.677C677.724 181.75 680.025 182.823 682.351 183.922L681.278 186.248V186.222ZM667.37 179.808C665.043 178.76 662.717 177.712 660.39 176.664L661.439 174.339C663.765 175.387 666.091 176.434 668.444 177.482L667.395 179.808H667.37ZM653.385 173.547C651.033 172.524 648.707 171.502 646.355 170.48L647.377 168.129C649.729 169.151 652.056 170.173 654.408 171.196L653.385 173.547ZM639.324 167.464C636.972 166.468 634.62 165.471 632.268 164.5L633.239 162.149C635.591 163.12 637.943 164.117 640.321 165.139L639.324 167.49V167.464ZM625.186 161.561C622.808 160.59 620.456 159.644 618.079 158.673L619.025 156.297C621.402 157.242 623.754 158.213 626.132 159.184L625.161 161.561H625.186ZM610.971 155.862C608.594 154.917 606.216 153.997 603.839 153.077L604.759 150.7C607.137 151.62 609.54 152.54 611.917 153.486L610.971 155.862ZM596.68 150.342C594.302 149.448 591.899 148.553 589.496 147.659L590.391 145.257C592.794 146.151 595.197 147.046 597.575 147.94L596.68 150.342ZM582.312 145.052C579.909 144.183 577.506 143.34 575.102 142.471L575.946 140.069C578.349 140.912 580.778 141.781 583.181 142.65L582.312 145.052ZM567.867 139.967C565.439 139.124 563.035 138.306 560.607 137.514L561.425 135.086C563.853 135.904 566.282 136.721 568.685 137.565L567.842 139.992L567.867 139.967ZM553.346 135.086C550.917 134.294 548.514 133.527 546.085 132.735L546.852 130.307C549.281 131.074 551.71 131.866 554.138 132.658L553.346 135.086ZM538.799 130.46C536.37 129.719 533.941 128.978 531.487 128.237L532.228 125.784C534.683 126.525 537.111 127.266 539.54 128.007L538.773 130.46H538.799ZM524.175 126.065C521.721 125.349 519.292 124.659 516.838 123.944L517.528 121.49C519.982 122.18 522.437 122.896 524.891 123.611L524.175 126.065ZM1.55677 124.634L0.96875 122.155C3.47421 121.567 5.9541 121.005 8.45956 120.443L9.02201 122.947C6.54212 123.509 4.03666 124.071 1.55677 124.659V124.634ZM509.372 121.874C506.918 121.209 504.464 120.545 501.984 119.88L502.649 117.401C505.129 118.066 507.583 118.73 510.063 119.395L509.398 121.848L509.372 121.874ZM16.5128 121.26L15.9504 118.756C18.4558 118.194 20.9613 117.657 23.4412 117.12L23.9781 119.625C21.4982 120.161 18.9927 120.698 16.4873 121.26H16.5128ZM31.4944 118.015L30.9576 115.51C33.463 114.974 35.9685 114.463 38.4739 113.951L38.9853 116.456C36.4798 116.967 33.9999 117.478 31.4944 118.015ZM494.595 117.964C492.116 117.325 489.661 116.711 487.181 116.098L487.795 113.619C490.275 114.233 492.755 114.846 495.235 115.485L494.595 117.964ZM46.5016 114.923L45.9903 112.418C48.4958 111.907 51.0268 111.421 53.5323 110.936L54.018 113.44C51.5126 113.926 49.0071 114.411 46.5016 114.923ZM479.742 114.284C477.262 113.696 474.782 113.108 472.276 112.546L472.839 110.067C475.344 110.629 477.824 111.217 480.33 111.805L479.742 114.284ZM61.5344 111.984L61.0486 109.479C63.5797 108.994 66.0851 108.534 68.5906 108.074L69.0508 110.578C66.5453 111.038 64.0399 111.498 61.5088 111.984H61.5344ZM464.786 110.885C462.28 110.348 459.8 109.811 457.295 109.275L457.832 106.77C460.337 107.307 462.843 107.844 465.348 108.38L464.811 110.885H464.786ZM76.5927 109.224L76.1325 106.719C78.6636 106.259 81.169 105.825 83.7 105.39L84.1347 107.92C81.6292 108.355 79.0982 108.789 76.5927 109.249V109.224ZM449.778 107.742C447.273 107.23 444.767 106.745 442.262 106.259L442.748 103.755C445.279 104.24 447.784 104.726 450.29 105.237L449.778 107.742ZM91.6766 106.617L91.2676 104.087C93.7986 103.653 96.3296 103.244 98.8351 102.835L99.2441 105.365C96.7387 105.774 94.2076 106.183 91.6766 106.592V106.617ZM434.694 104.854C432.189 104.394 429.658 103.934 427.127 103.499L427.562 100.969C430.093 101.404 432.624 101.864 435.129 102.324L434.669 104.828L434.694 104.854ZM106.812 104.189L106.428 101.659C108.959 101.276 111.49 100.893 114.021 100.509L114.405 103.039C111.899 103.423 109.368 103.806 106.837 104.189H106.812ZM419.585 102.222C417.054 101.813 414.523 101.404 411.992 101.02L412.375 98.4905C414.906 98.8738 417.463 99.2827 419.994 99.7171L419.585 102.247V102.222ZM121.972 101.915L121.614 99.3849C124.145 99.0271 126.676 98.6693 129.207 98.3116L129.565 100.842C127.034 101.174 124.503 101.532 121.972 101.889V101.915ZM404.399 99.8449C401.868 99.4871 399.362 99.1293 396.831 98.7716L397.189 96.2416C399.72 96.5994 402.251 96.9571 404.782 97.3149L404.424 99.8449H404.399ZM137.158 99.8449L136.826 97.3149C139.383 96.9827 141.914 96.6505 144.445 96.3438L144.751 98.8738C142.22 99.1804 139.689 99.5127 137.158 99.8449ZM152.37 97.9538L152.063 95.4238C154.62 95.1171 157.151 94.836 159.682 94.5549L159.963 97.0849C157.432 97.366 154.901 97.6471 152.345 97.9538H152.37ZM389.238 97.7749C386.707 97.4427 384.176 97.136 381.645 96.8293L381.952 94.2994C384.509 94.606 387.04 94.9127 389.571 95.2449L389.238 97.7749ZM167.607 96.2927L167.352 93.7627C169.908 93.5071 172.465 93.2516 174.996 92.996L175.252 95.5516C172.721 95.8071 170.164 96.0627 167.633 96.3182L167.607 96.2927ZM374.027 95.9605C371.496 95.6794 368.965 95.3982 366.408 95.1427L366.664 92.5872C369.22 92.8427 371.751 93.1238 374.308 93.4049L374.027 95.9349V95.9605ZM182.845 94.8105L182.615 92.2549C185.171 92.0249 187.728 91.7949 190.259 91.5905L190.463 94.146C187.932 94.3505 185.376 94.5805 182.845 94.8105ZM358.789 94.4271C356.258 94.1971 353.702 93.9671 351.171 93.7627L351.375 91.2072C353.932 91.4116 356.488 91.6416 359.019 91.8716L358.789 94.4271ZM198.107 93.5583L197.903 91.0027C200.46 90.7983 203.016 90.6194 205.573 90.4405L205.752 92.996C203.221 93.1749 200.664 93.3538 198.107 93.5583ZM343.526 93.1494C340.995 92.9449 338.439 92.766 335.882 92.6127L336.061 90.0572C338.618 90.2361 341.174 90.415 343.731 90.5938L343.526 93.1494ZM213.396 92.5105L213.243 89.955C215.799 89.8016 218.356 89.6483 220.912 89.5205L221.04 92.076C218.509 92.2038 215.953 92.3572 213.396 92.5105ZM328.238 92.1272C325.707 91.9738 323.15 91.846 320.594 91.7183L320.722 89.1627C323.278 89.2905 325.835 89.4183 328.391 89.5716L328.238 92.1272ZM228.684 91.6672L228.557 89.1116C231.113 88.9838 233.67 88.8816 236.226 88.7794L236.329 91.3349C233.772 91.4372 231.241 91.5394 228.684 91.6672ZM312.95 91.3605C310.393 91.2583 307.862 91.1561 305.305 91.0794L305.382 88.5238C307.939 88.6005 310.495 88.7027 313.052 88.805L312.95 91.3605ZM243.998 91.0794L243.922 88.5238C246.478 88.4472 249.035 88.3705 251.591 88.3194L251.643 90.8749C249.086 90.9261 246.555 91.0027 243.998 91.0794ZM297.636 90.8749C295.079 90.8238 292.548 90.7727 289.991 90.7216L290.043 88.1661C292.599 88.2172 295.156 88.2683 297.712 88.3194L297.661 90.8749H297.636ZM259.338 90.7216L259.287 88.1661C261.869 88.115 264.425 88.0894 266.982 88.0639V90.6194C264.451 90.6194 261.894 90.6705 259.312 90.7216H259.338ZM282.322 90.6194C279.791 90.6194 277.234 90.5938 274.677 90.5938V88.0383H274.882C277.234 88.0383 279.791 88.0383 282.322 88.0383V90.5938V90.6194Z" fill="#CBE3FE"/>
<path d="M316.535 919.099C314.796 919.099 313.058 919.048 311.319 918.972L311.447 916.416C313.952 916.544 316.483 916.569 319.014 916.493L319.091 919.048C318.247 919.048 317.404 919.074 316.535 919.074V919.099ZM326.786 918.563L326.505 916.033C328.985 915.777 331.491 915.394 333.919 914.934L334.405 917.438C331.9 917.924 329.343 918.307 326.786 918.588V918.563ZM303.598 918.333C301.042 918.026 298.459 917.617 295.954 917.132L296.44 914.627C298.894 915.113 301.4 915.496 303.905 915.803L303.598 918.333ZM341.921 915.649L341.231 913.196C343.634 912.532 346.038 911.739 348.39 910.896L349.259 913.298C346.856 914.193 344.376 914.985 341.896 915.675L341.921 915.649ZM288.412 915.394C285.932 914.729 283.452 913.963 281.023 913.119L281.867 910.692C284.245 911.509 286.674 912.251 289.102 912.915L288.438 915.368L288.412 915.394ZM273.814 910.385C271.462 909.388 269.084 908.315 266.783 907.165L267.908 904.865C270.184 905.989 272.484 907.063 274.811 908.034L273.814 910.385ZM356.443 910.359L355.395 908.034C357.67 907.012 359.92 905.862 362.144 904.661L363.371 906.909C361.096 908.136 358.769 909.312 356.443 910.359ZM259.957 903.536C257.758 902.284 255.534 900.929 253.361 899.524L254.742 897.377C256.889 898.757 259.062 900.086 261.235 901.313L259.957 903.536ZM370.018 902.999L368.638 900.827C370.734 899.498 372.856 898.067 374.901 896.585L376.41 898.655C374.313 900.163 372.14 901.645 370.018 902.999ZM246.995 895.18C244.924 893.697 242.854 892.138 240.834 890.528L242.419 888.51C244.413 890.094 246.458 891.602 248.504 893.084L247.021 895.154L246.995 895.18ZM382.546 893.953L380.935 891.96C382.853 890.426 384.796 888.765 386.713 887.027L388.426 888.944C386.457 890.707 384.489 892.368 382.546 893.953ZM234.851 885.647C232.908 883.986 230.991 882.274 229.099 880.536L230.838 878.671C232.729 880.408 234.621 882.095 236.539 883.731L234.877 885.673L234.851 885.647ZM394.05 883.68L392.261 881.865C394.05 880.102 395.814 878.287 397.578 876.422L399.445 878.185C397.655 880.076 395.866 881.916 394.05 883.705V883.68ZM223.5 875.195C221.685 873.406 219.87 871.566 218.106 869.701L219.947 867.938C221.711 869.777 223.5 871.592 225.29 873.381L223.5 875.195ZM404.609 872.435L402.692 870.749C404.353 868.858 405.99 866.915 407.6 864.922L409.569 866.532C407.933 868.551 406.271 870.519 404.609 872.435ZM212.865 864.053C211.152 862.162 209.464 860.245 207.777 858.278L209.72 856.616C211.382 858.559 213.069 860.475 214.782 862.341L212.89 864.053H212.865ZM414.375 860.501L412.356 858.942C413.889 856.949 415.398 854.904 416.906 852.834L418.977 854.342C417.443 856.438 415.909 858.508 414.375 860.526V860.501ZM202.817 852.374C201.207 850.407 199.596 848.413 197.985 846.394L200.005 844.81C201.59 846.829 203.201 848.797 204.811 850.764L202.843 852.374H202.817ZM423.426 848.03L421.329 846.573C422.761 844.503 424.167 842.382 425.599 840.236L427.746 841.641C426.315 843.813 424.908 845.934 423.451 848.03H423.426ZM193.281 840.312C191.747 838.293 190.188 836.223 188.679 834.153L190.75 832.646C192.259 834.716 193.793 836.76 195.327 838.779L193.281 840.338V840.312ZM431.862 835.15L429.689 833.796C431.019 831.649 432.374 829.477 433.678 827.279L435.876 828.582C434.547 830.806 433.192 832.978 431.862 835.15ZM184.154 827.918C182.671 825.848 181.189 823.752 179.731 821.631L181.828 820.174C183.285 822.27 184.768 824.366 186.251 826.436L184.18 827.918H184.154ZM439.788 821.963L437.564 820.686C438.816 818.488 440.095 816.264 441.347 814.016L443.572 815.268C442.319 817.517 441.041 819.766 439.788 821.963ZM175.36 815.293C173.928 813.172 172.496 811.051 171.064 808.905L173.186 807.499C174.593 809.62 176.024 811.741 177.456 813.862L175.334 815.293H175.36ZM447.279 808.521L445.029 807.32C446.23 805.097 447.432 802.848 448.608 800.548L450.883 801.723C449.682 804.023 448.48 806.272 447.279 808.521ZM166.846 802.49C165.44 800.343 164.059 798.197 162.679 796.05L164.826 794.67C166.207 796.817 167.613 798.964 168.994 801.11L166.846 802.516V802.49ZM454.386 794.875L452.111 793.725C453.261 791.45 454.386 789.176 455.536 786.876L457.837 788C456.712 790.326 455.562 792.6 454.411 794.875H454.386ZM158.537 789.585C157.157 787.438 155.802 785.266 154.421 783.094L156.594 781.739C157.949 783.911 159.33 786.058 160.685 788.23L158.537 789.61V789.585ZM461.161 781.075L458.86 779.976C459.959 777.676 461.033 775.376 462.132 773.05L464.459 774.124C463.36 776.449 462.286 778.775 461.186 781.075H461.161ZM150.331 776.551L146.266 770.035L148.439 768.68L152.504 775.197L150.331 776.551ZM467.655 767.147L465.328 766.099C466.376 763.774 467.425 761.448 468.473 759.123L470.799 760.17C469.751 762.522 468.703 764.847 467.629 767.173L467.655 767.147ZM142.226 763.518L138.187 757.002L140.36 755.647L144.399 762.164L142.226 763.518ZM473.918 753.117L471.566 752.095C472.589 749.769 473.611 747.418 474.609 745.067L476.961 746.064C475.938 748.441 474.941 750.792 473.918 753.117ZM134.173 750.485L130.133 743.968L132.307 742.614L136.372 749.131L134.198 750.485H134.173ZM479.977 739.011L477.625 738.014C478.622 735.663 479.594 733.312 480.591 730.935L482.943 731.906C481.972 734.283 480.974 736.634 479.977 738.985V739.011ZM126.043 737.477C124.688 735.305 123.307 733.133 121.952 730.986L124.1 729.606C125.455 731.753 126.835 733.925 128.19 736.097L126.017 737.452L126.043 737.477ZM1114.68 728.942C1113.04 728.942 1111.4 728.942 1109.77 728.865L1109.84 726.31C1112.35 726.386 1114.93 726.412 1117.44 726.361L1117.49 728.916C1116.54 728.916 1115.6 728.942 1114.65 728.942H1114.68ZM1125.21 728.558L1125.03 726.003C1127.56 725.824 1130.09 725.568 1132.55 725.236L1132.88 727.766C1130.37 728.098 1127.79 728.354 1125.21 728.558ZM1102.07 728.456C1099.49 728.252 1096.91 727.996 1094.4 727.664L1094.74 725.134C1097.22 725.441 1099.75 725.722 1102.3 725.926L1102.1 728.482L1102.07 728.456ZM1140.47 726.54L1139.99 724.035C1142.47 723.55 1144.95 723.013 1147.38 722.4L1148.01 724.878C1145.56 725.517 1143 726.054 1140.5 726.54H1140.47ZM1086.76 726.488C1084.25 726.028 1081.72 725.517 1079.22 724.904L1079.8 722.425C1082.26 723.013 1084.76 723.524 1087.22 723.958L1086.76 726.463V726.488ZM485.858 724.827L483.48 723.856C484.451 721.505 485.397 719.129 486.369 716.752L488.746 717.697C487.801 720.074 486.829 722.451 485.858 724.827ZM117.836 724.546C116.456 722.374 115.05 720.253 113.669 718.106L115.817 716.701C117.223 718.822 118.603 720.968 120.009 723.141L117.862 724.521L117.836 724.546ZM1071.75 722.962C1069.3 722.246 1066.82 721.454 1064.41 720.611L1065.26 718.209C1067.61 719.026 1070.04 719.819 1072.47 720.534L1071.75 722.987V722.962ZM1155.4 722.783L1154.64 720.355C1157.04 719.589 1159.42 718.745 1161.77 717.851L1162.69 720.227C1160.31 721.147 1157.86 721.991 1155.4 722.783ZM1057.2 717.851C1054.83 716.88 1052.47 715.832 1050.15 714.733L1051.25 712.433C1053.52 713.506 1055.85 714.554 1058.18 715.5L1057.2 717.851ZM1169.8 717.263L1168.75 714.937C1171.05 713.89 1173.32 712.791 1175.55 711.641L1176.73 713.915C1174.45 715.091 1172.12 716.241 1169.8 717.288V717.263ZM109.425 711.717C107.993 709.571 106.562 707.475 105.13 705.38L107.252 703.949C108.684 706.044 110.115 708.165 111.547 710.312L109.425 711.717ZM1043.27 711.232C1041.05 710.031 1038.8 708.753 1036.57 707.399L1037.9 705.201C1040.08 706.504 1042.3 707.782 1044.5 708.957L1043.3 711.206L1043.27 711.232ZM491.584 710.593L489.207 709.647C490.153 707.271 491.073 704.894 492.019 702.517L494.397 703.463C493.451 705.84 492.53 708.242 491.584 710.593ZM1183.5 710.159L1182.2 707.961C1184.34 706.683 1186.52 705.329 1188.61 703.923L1190.02 706.044C1187.87 707.475 1185.67 708.855 1183.47 710.159H1183.5ZM1030.1 703.284C1027.98 701.853 1025.86 700.371 1023.79 698.837L1025.3 696.793C1027.34 698.301 1029.41 699.757 1031.54 701.163L1030.1 703.284ZM1196.36 701.623L1194.85 699.579C1196.87 698.096 1198.89 696.538 1200.86 694.928L1202.47 696.921C1200.45 698.556 1198.41 700.141 1196.36 701.623ZM100.809 699.093C99.3265 696.998 97.8437 694.902 96.3609 692.858L98.4317 691.35C99.9145 693.42 101.423 695.49 102.906 697.611L100.809 699.093ZM497.209 696.308L494.831 695.387C495.752 693.011 496.672 690.634 497.592 688.232L499.97 689.152C499.05 691.554 498.129 693.931 497.209 696.308ZM1017.68 694.161C1015.69 692.551 1013.72 690.915 1011.77 689.203L1013.46 687.286C1015.38 688.948 1017.32 690.583 1019.29 692.168L1017.68 694.161ZM1208.35 691.938L1206.66 690.021C1208.55 688.36 1210.42 686.622 1212.26 684.859L1214.03 686.699C1212.16 688.488 1210.27 690.225 1208.35 691.912V691.938ZM91.8102 686.699C90.2506 684.654 88.7167 682.61 87.1572 680.642L89.1769 679.058C90.7364 681.051 92.3215 683.095 93.8554 685.165L91.8102 686.699ZM1006.05 684.015C1004.18 682.278 1002.34 680.463 1000.52 678.649L1002.34 676.834C1004.13 678.649 1005.97 680.412 1007.81 682.15L1006.05 684.015ZM502.706 681.971L500.328 681.051L503.038 673.87L505.441 674.764L502.731 681.945L502.706 681.971ZM1219.47 681.255L1217.63 679.467C1219.39 677.652 1221.11 675.812 1222.82 673.895L1224.71 675.608C1222.97 677.524 1221.24 679.415 1219.45 681.23L1219.47 681.255ZM82.3508 674.662C80.7145 672.669 79.0783 670.727 77.4165 668.835L79.334 667.149C80.9958 669.066 82.6575 671.033 84.3193 673.027L82.3508 674.662ZM995.182 673.078C993.443 671.212 991.73 669.296 990.017 667.353L991.935 665.667C993.622 667.583 995.335 669.474 997.048 671.314L995.182 673.052V673.078ZM1229.8 669.807L1227.86 668.146C1229.49 666.229 1231.1 664.261 1232.69 662.242L1234.68 663.827C1233.07 665.846 1231.44 667.839 1229.8 669.781V669.807ZM508.125 667.583L505.722 666.689L508.381 659.533L510.784 660.428L508.1 667.583H508.125ZM72.3289 663.162C70.5904 661.271 68.8264 659.431 67.0368 657.668L68.852 655.853C70.6416 657.642 72.4312 659.508 74.1952 661.424L72.3289 663.162ZM985.032 661.501C983.396 659.533 981.785 657.54 980.2 655.521L982.22 653.937C983.805 655.956 985.39 657.923 987.001 659.866L985.032 661.501ZM1239.41 657.744L1237.37 656.211C1238.88 654.192 1240.38 652.148 1241.87 650.052L1243.96 651.535C1242.46 653.656 1240.95 655.726 1239.41 657.744ZM513.469 653.247L511.066 652.352L513.724 645.171L516.128 646.066L513.469 653.247ZM61.5401 652.378C59.6227 650.615 57.7052 648.928 55.8133 647.369L57.4496 645.401C59.367 646.986 61.31 648.698 63.253 650.487L61.5145 652.378H61.5401ZM975.496 649.388C973.962 647.343 972.454 645.273 970.945 643.178L973.016 641.696C974.499 643.766 976.007 645.836 977.516 647.855L975.47 649.388H975.496ZM1248.31 645.197L1246.19 643.766C1247.59 641.67 1249 639.549 1250.38 637.377L1252.53 638.757C1251.12 640.929 1249.72 643.076 1248.28 645.197H1248.31ZM49.8565 642.667C47.7856 641.133 45.6892 639.677 43.644 638.348L45.0245 636.201C47.1465 637.556 49.2685 639.038 51.3904 640.597L49.8565 642.641V642.667ZM518.761 638.833L516.358 637.965L519.017 630.758L521.42 631.627L518.761 638.833ZM966.548 636.866C965.116 634.745 963.685 632.624 962.278 630.477L964.426 629.071C965.832 631.218 967.238 633.339 968.67 635.435L966.548 636.866ZM37.1247 634.515C34.8749 633.288 32.5995 632.189 30.3497 631.192L31.3723 628.841C33.6733 629.838 36.0253 630.988 38.3263 632.24L37.0991 634.489L37.1247 634.515ZM1256.64 632.266L1254.47 630.937C1255.8 628.79 1257.1 626.592 1258.41 624.395L1260.61 625.698C1259.3 627.921 1257.97 630.119 1256.64 632.291V632.266ZM23.3446 628.535C20.9414 627.742 18.5127 627.078 16.1095 626.567L16.6464 624.062C19.1263 624.599 21.6573 625.289 24.1372 626.107L23.3446 628.535ZM8.7465 625.366C6.2666 625.085 3.76114 624.957 1.28125 624.957V622.401C3.86341 622.401 6.47113 622.555 9.02772 622.81L8.7465 625.34V625.366ZM524.053 624.42L521.65 623.551L524.309 616.319L526.712 617.188L524.053 624.42ZM958.111 624.011C956.756 621.865 955.401 619.667 954.046 617.469L956.219 616.14C957.549 618.338 958.904 620.485 960.259 622.631L958.086 624.011H958.111ZM1264.47 619.003L1262.24 617.75C1263.5 615.553 1264.72 613.304 1265.95 611.055L1268.2 612.281C1266.97 614.556 1265.72 616.805 1264.47 619.003ZM950.109 610.876C948.805 608.678 947.527 606.455 946.248 604.231L948.473 602.954C949.751 605.177 951.029 607.375 952.308 609.573L950.109 610.876ZM529.345 609.956L526.942 609.087L529.575 601.88L531.978 602.749L529.345 609.956ZM1271.8 605.484L1269.53 604.308C1270.71 602.059 1271.88 599.785 1273.03 597.51L1275.31 598.66C1274.13 600.96 1272.98 603.235 1271.8 605.509V605.484ZM942.465 597.536C941.212 595.313 939.985 593.064 938.758 590.789L941.008 589.563C942.235 591.812 943.462 594.06 944.689 596.284L942.465 597.536ZM534.637 595.568L532.234 594.699L534.893 587.493L537.296 588.387L534.637 595.594V595.568ZM1278.76 591.76L1276.46 590.636C1277.58 588.362 1278.68 586.062 1279.78 583.736L1282.08 584.835C1280.98 587.16 1279.88 589.486 1278.76 591.76ZM935.153 584.017C933.951 581.768 932.775 579.494 931.599 577.219L933.875 576.044C935.051 578.318 936.227 580.567 937.428 582.842L935.179 584.043L935.153 584.017ZM539.955 581.155L537.552 580.261L540.211 573.054L542.614 573.948L539.955 581.129V581.155ZM1285.35 577.858L1283.03 576.785C1284.08 574.485 1285.15 572.16 1286.17 569.808L1288.5 570.856C1287.45 573.207 1286.4 575.533 1285.33 577.858H1285.35ZM928.097 570.371C926.946 568.096 925.796 565.796 924.645 563.496L926.946 562.346C928.097 564.646 929.222 566.921 930.398 569.195L928.122 570.345L928.097 570.371ZM545.298 566.767L542.895 565.873L545.58 558.692L547.983 559.586L545.298 566.767ZM1291.59 563.803L1289.24 562.781C1290.24 560.455 1291.26 558.104 1292.26 555.727L1294.61 556.724C1293.61 559.101 1292.62 561.452 1291.59 563.803ZM921.245 556.622C920.12 554.322 918.995 552.022 917.896 549.722L920.197 548.597C921.322 550.897 922.421 553.197 923.546 555.497L921.245 556.622ZM550.693 552.405L548.29 551.511L551.025 544.33L553.403 545.25L550.667 552.405H550.693ZM1297.58 549.645L1295.2 548.674C1296.17 546.323 1297.12 543.946 1298.09 541.57L1300.46 542.515C1299.52 544.892 1298.55 547.269 1297.58 549.645ZM914.547 542.796C913.447 540.496 912.348 538.171 911.249 535.871L913.55 534.772C914.649 537.097 915.748 539.397 916.848 541.697L914.547 542.796ZM556.164 538.094L553.786 537.174L556.573 530.019L558.951 530.939L556.164 538.094ZM1303.3 535.411L1300.92 534.465C1301.84 532.089 1302.79 529.712 1303.69 527.335L1306.06 528.255C1305.14 530.658 1304.22 533.034 1303.28 535.411H1303.3ZM907.976 528.894L904.729 521.918L907.056 520.844L910.303 527.795L907.976 528.869V528.894ZM561.763 523.809L559.385 522.863C560.331 520.487 561.277 518.084 562.223 515.733L564.601 516.679C563.655 519.055 562.709 521.406 561.763 523.809ZM1308.82 521.049L1306.42 520.154C1307.32 517.778 1308.21 515.375 1309.11 512.973L1311.51 513.868C1310.61 516.27 1309.72 518.672 1308.82 521.074V521.049ZM901.508 514.967L898.287 508.015L900.613 506.942L903.835 513.893L901.508 514.967ZM567.464 509.574L565.086 508.603C566.058 506.227 567.029 503.85 568.001 501.499L570.353 502.47C569.381 504.821 568.41 507.198 567.464 509.574ZM1314.14 506.661L1311.74 505.792C1312.61 503.39 1313.48 500.988 1314.32 498.586L1316.72 499.454C1315.85 501.882 1315.01 504.284 1314.12 506.687L1314.14 506.661ZM895.066 501.09L891.844 494.139L894.171 493.066L897.392 500.017L895.066 501.09ZM573.319 495.417L570.966 494.42C571.964 492.043 572.961 489.692 573.958 487.341L576.31 488.338C575.313 490.689 574.316 493.04 573.319 495.391V495.417ZM1319.31 492.197L1316.9 491.353C1317.75 488.951 1318.59 486.523 1319.41 484.121L1321.84 484.965C1320.99 487.392 1320.15 489.794 1319.31 492.222V492.197ZM888.597 487.162L885.35 480.211L887.677 479.138L890.924 486.089L888.597 487.162ZM579.301 481.31L576.949 480.288C577.972 477.937 578.994 475.586 580.042 473.26L582.394 474.282C581.372 476.608 580.349 478.959 579.327 481.31H579.301ZM1324.29 477.681L1321.86 476.863C1322.68 474.436 1323.5 472.033 1324.32 469.606L1326.75 470.423C1325.93 472.851 1325.11 475.279 1324.29 477.707V477.681ZM882.053 473.286C880.953 470.96 879.854 468.66 878.755 466.36L881.055 465.261C882.155 467.561 883.254 469.887 884.353 472.187L882.053 473.286ZM585.488 467.306L583.161 466.258C584.235 463.907 585.283 461.581 586.357 459.281L588.684 460.355C587.61 462.655 586.562 464.98 585.488 467.331V467.306ZM1329.17 463.14L1326.75 462.348C1327.54 459.92 1328.36 457.492 1329.15 455.065L1331.58 455.857C1330.79 458.285 1329.97 460.712 1329.17 463.14ZM875.431 459.46C874.306 457.16 873.181 454.86 872.082 452.56L874.383 451.436C875.508 453.736 876.633 456.036 877.757 458.336L875.456 459.46H875.431ZM591.931 453.404L589.63 452.305C590.729 449.979 591.854 447.679 592.953 445.379L595.254 446.504C594.129 448.778 593.03 451.078 591.931 453.404ZM1333.96 448.548L1331.53 447.756L1333.88 440.498L1336.31 441.29L1333.96 448.574V448.548ZM868.682 445.711C867.531 443.411 866.381 441.137 865.23 438.863L867.505 437.687C868.656 439.961 869.832 442.236 870.982 444.536L868.707 445.686L868.682 445.711ZM598.654 439.655L596.379 438.505C597.529 436.205 598.706 433.905 599.856 431.656L602.131 432.832C600.955 435.08 599.805 437.355 598.654 439.655ZM1338.63 433.982L1336.21 433.215L1338.53 425.906L1340.96 426.673L1338.63 433.982ZM861.702 432.065C860.5 429.79 859.324 427.542 858.123 425.293L860.373 424.092C861.574 426.34 862.776 428.589 863.977 430.889L861.702 432.065ZM605.685 426.059L603.435 424.858C604.662 422.584 605.864 420.335 607.117 418.112L609.341 419.338C608.114 421.562 606.887 423.785 605.685 426.059ZM1912.72 424.833C1910.11 424.756 1907.55 424.603 1905.02 424.424L1905.2 421.868C1907.71 422.047 1910.24 422.201 1912.79 422.277L1912.72 424.833ZM1897.33 423.683C1894.77 423.376 1892.21 422.993 1889.68 422.584L1890.12 420.054C1892.6 420.463 1895.13 420.846 1897.63 421.127L1897.33 423.657V423.683ZM1882.11 421.102C1879.58 420.539 1877.08 419.926 1874.62 419.262L1875.31 416.808C1877.69 417.473 1880.17 418.086 1882.68 418.623L1882.11 421.127V421.102ZM1343.24 419.389L1340.81 418.623L1343.11 411.288L1345.54 412.055L1343.24 419.389ZM854.416 418.597C853.163 416.348 851.91 414.125 850.658 411.927L852.882 410.649C854.135 412.873 855.413 415.096 856.666 417.345L854.441 418.572L854.416 418.597ZM1867.23 417.013C1864.81 416.221 1862.38 415.326 1859.97 414.381L1860.92 412.004C1863.27 412.924 1865.68 413.793 1868.05 414.585L1867.26 417.013H1867.23ZM613.074 412.668L610.849 411.391C612.128 409.142 613.431 406.944 614.735 404.746L616.934 406.049C615.63 408.222 614.352 410.419 613.074 412.643V412.668ZM1852.89 411.365C1850.57 410.317 1848.24 409.167 1845.96 407.992L1847.14 405.717C1849.39 406.893 1851.67 408.017 1853.94 409.039L1852.89 411.365ZM846.823 405.283C845.519 403.085 844.189 400.887 842.86 398.741L845.033 397.386C846.362 399.558 847.692 401.756 849.021 403.979L846.823 405.283ZM1347.84 404.695L1345.41 403.928L1347.68 396.568L1350.11 397.335L1347.84 404.695ZM1839.24 404.235C1837.04 402.932 1834.84 401.577 1832.7 400.146L1834.1 398.025C1836.22 399.431 1838.37 400.785 1840.52 402.037L1839.21 404.235H1839.24ZM620.922 399.533L618.749 398.178C620.104 395.981 621.485 393.808 622.891 391.687L625.038 393.093C623.658 395.214 622.303 397.361 620.948 399.533H620.922ZM1826.38 395.725C1824.34 394.217 1822.29 392.633 1820.3 390.997L1821.91 389.004C1823.88 390.614 1825.89 392.173 1827.91 393.655L1826.41 395.7L1826.38 395.725ZM838.795 392.275C837.414 390.128 836.008 387.982 834.577 385.886L836.699 384.455C838.13 386.551 839.536 388.697 840.943 390.87L838.795 392.25V392.275ZM1352.39 390.001L1349.93 389.26L1352.18 381.925L1354.64 382.666L1352.39 390.001ZM629.282 386.704L627.16 385.273C628.618 383.126 630.1 381.031 631.583 378.961L633.654 380.443C632.171 382.487 630.714 384.557 629.257 386.678L629.282 386.704ZM1814.44 385.963C1812.52 384.251 1810.63 382.487 1808.79 380.699L1810.58 378.859C1812.4 380.647 1814.26 382.36 1816.15 384.046L1814.44 385.963ZM830.23 379.6C828.748 377.504 827.239 375.46 825.705 373.441L827.75 371.908C829.284 373.926 830.818 375.996 832.327 378.117L830.256 379.6H830.23ZM1356.91 375.332L1354.46 374.591L1356.71 367.256L1359.16 367.998L1356.91 375.332ZM1803.37 375.23C1801.61 373.364 1799.87 371.473 1798.18 369.531L1800.1 367.844C1801.79 369.761 1803.5 371.626 1805.24 373.466L1803.37 375.23ZM638.23 374.361L636.211 372.802C637.796 370.732 639.381 368.713 640.992 366.745L642.986 368.355C641.401 370.298 639.815 372.291 638.256 374.335L638.23 374.361ZM821.027 367.486C819.416 365.493 817.78 363.551 816.144 361.634L818.087 359.948C819.748 361.864 821.41 363.832 823.046 365.851L821.052 367.461L821.027 367.486ZM1793.2 363.679C1791.59 361.711 1789.97 359.692 1788.42 357.648L1790.43 356.089C1791.99 358.108 1793.55 360.101 1795.16 362.069L1793.2 363.679ZM647.843 362.554L645.926 360.868C647.639 358.9 649.352 357.009 651.09 355.143L652.956 356.881C651.243 358.721 649.531 360.586 647.843 362.529V362.554ZM1361.44 360.714L1358.98 359.973L1361.23 352.639L1363.69 353.38L1361.44 360.714ZM811.03 355.987C809.266 354.121 807.477 352.281 805.713 350.569L807.502 348.729C809.318 350.492 811.133 352.332 812.897 354.249L811.03 355.987ZM658.274 351.489L656.484 349.674C658.351 347.86 660.243 346.071 662.109 344.41L663.822 346.327C661.981 347.962 660.115 349.725 658.274 351.514V351.489ZM1783.84 351.489C1782.36 349.419 1780.87 347.323 1779.44 345.177L1781.56 343.745C1783 345.867 1784.45 347.937 1785.94 350.007L1783.86 351.489H1783.84ZM1365.96 346.071L1363.51 345.304L1365.79 337.97L1368.21 338.737L1365.94 346.071H1365.96ZM800.139 345.407C798.222 343.72 796.253 342.084 794.31 340.551L795.895 338.558C797.864 340.117 799.858 341.778 801.827 343.515L800.139 345.432V345.407ZM669.6 341.42L667.989 339.427C670.034 337.791 672.105 336.207 674.125 334.776L675.608 336.846C673.614 338.277 671.568 339.81 669.574 341.42H669.6ZM1775.17 338.762C1773.79 336.616 1772.44 334.443 1771.08 332.246L1773.25 330.917C1774.58 333.089 1775.94 335.261 1777.29 337.382L1775.15 338.762H1775.17ZM788.226 336.053C786.129 334.597 784.007 333.217 781.885 331.939L783.215 329.741C785.388 331.044 787.561 332.45 789.708 333.958L788.251 336.053H788.226ZM681.897 332.654L680.542 330.482C682.741 329.102 684.99 327.824 687.215 326.623L688.416 328.872C686.243 330.022 684.044 331.3 681.897 332.654ZM1370.51 331.428L1368.06 330.661L1370.36 323.327L1372.82 324.093L1370.51 331.402V331.428ZM775.289 328.259C773.039 327.109 770.739 326.036 768.438 325.09L769.435 322.739C771.787 323.71 774.139 324.809 776.44 325.984L775.289 328.259ZM1767.17 325.627C1765.89 323.429 1764.61 321.18 1763.36 318.931L1765.58 317.679C1766.84 319.902 1768.09 322.126 1769.37 324.323L1767.14 325.601L1767.17 325.627ZM695.217 325.601L694.194 323.25C696.572 322.202 698.975 321.257 701.378 320.413L702.222 322.816C699.895 323.633 697.543 324.553 695.242 325.576L695.217 325.601ZM761.407 322.483C759.029 321.717 756.601 321.027 754.172 320.439L754.76 317.96C757.24 318.548 759.745 319.263 762.2 320.056L761.407 322.483ZM709.406 320.669L708.767 318.19C711.247 317.551 713.803 316.989 716.334 316.58L716.769 319.11C714.315 319.519 711.835 320.056 709.406 320.695V320.669ZM746.783 318.982C744.329 318.599 741.798 318.318 739.318 318.113L739.523 315.558C742.079 315.762 744.661 316.043 747.192 316.452L746.809 318.982H746.783ZM724.234 318.139L724.03 315.583C726.586 315.379 729.194 315.251 731.776 315.251V317.807C729.271 317.807 726.714 317.909 724.234 318.113V318.139ZM1375.12 316.81L1372.69 316.043L1375.01 308.735L1377.44 309.501L1375.12 316.81ZM1759.7 312.185C1758.5 309.936 1757.33 307.661 1756.15 305.361L1758.43 304.186C1759.6 306.46 1760.78 308.709 1761.98 310.958L1759.73 312.159L1759.7 312.185ZM1379.77 302.192L1377.34 301.4L1379.69 294.091L1382.12 294.884L1379.77 302.192ZM1752.67 298.512C1751.55 296.212 1750.42 293.912 1749.3 291.587L1751.6 290.488C1752.7 292.788 1753.82 295.088 1754.95 297.362L1752.65 298.487L1752.67 298.512ZM1384.5 287.6L1382.07 286.808C1382.86 284.38 1383.68 281.953 1384.47 279.525L1386.9 280.317C1386.11 282.745 1385.29 285.173 1384.5 287.6ZM1746.03 284.636C1744.95 282.31 1743.88 279.985 1742.83 277.659L1745.16 276.611C1746.21 278.937 1747.28 281.263 1748.35 283.563L1746.03 284.636ZM1389.33 273.034L1386.9 272.216L1389.36 264.933L1391.79 265.75L1389.33 273.008V273.034ZM1739.66 270.632C1738.61 268.28 1737.59 265.955 1736.57 263.604L1738.92 262.582C1739.94 264.933 1740.96 267.258 1741.99 269.609L1739.66 270.632ZM1394.29 258.518L1391.86 257.675C1392.71 255.247 1393.55 252.845 1394.39 250.417L1396.8 251.261C1395.95 253.663 1395.11 256.065 1394.27 258.493L1394.29 258.518ZM1733.55 256.525C1732.55 254.174 1731.56 251.823 1730.56 249.446L1732.91 248.449C1733.91 250.801 1734.91 253.152 1735.9 255.503L1733.55 256.499V256.525ZM1399.38 244.054L1396.98 243.185C1397.84 240.757 1398.71 238.355 1399.58 235.953L1401.99 236.822C1401.12 239.198 1400.25 241.601 1399.38 244.028V244.054ZM1727.57 242.367L1724.63 235.263L1726.98 234.292L1729.92 241.396L1727.57 242.367ZM1404.65 229.666L1402.24 228.772C1403.14 226.37 1404.06 223.967 1404.95 221.591L1407.36 222.511C1406.46 224.887 1405.54 227.264 1404.65 229.692V229.666ZM1721.69 228.158L1718.77 221.08L1721.15 220.109L1724.07 227.187L1721.69 228.158ZM1410.09 215.33L1407.71 214.41C1408.66 212.007 1409.58 209.631 1410.53 207.254L1412.9 208.2C1411.96 210.551 1411.01 212.927 1410.09 215.33ZM1715.86 213.975L1712.92 206.896L1715.27 205.925L1718.21 213.03L1715.86 214.001V213.975ZM1415.79 201.095L1413.41 200.124C1414.39 197.748 1415.38 195.371 1416.38 193.045L1418.73 194.042C1417.74 196.368 1416.76 198.744 1415.79 201.121V201.095ZM1709.98 199.792C1709.01 197.415 1708.01 195.064 1707.01 192.713L1709.37 191.716C1710.36 194.068 1711.36 196.419 1712.33 198.795L1709.98 199.766V199.792ZM1421.75 186.989L1419.4 185.967C1420.42 183.59 1421.47 181.264 1422.52 178.939L1424.84 179.987C1423.79 182.287 1422.77 184.638 1421.75 186.989ZM1704 185.685C1703 183.334 1701.98 180.983 1700.95 178.658L1703.31 177.635C1704.33 179.961 1705.35 182.312 1706.37 184.689L1704.02 185.685H1704ZM1428.01 173.036L1425.69 171.962C1426.76 169.611 1427.86 167.311 1428.98 165.011L1431.29 166.11C1430.19 168.384 1429.09 170.71 1428.01 173.036ZM1697.84 171.656C1696.79 169.304 1695.74 166.979 1694.67 164.679L1696.99 163.606C1698.07 165.931 1699.11 168.257 1700.16 170.608L1697.84 171.656ZM1434.63 159.236L1432.36 158.086C1433.51 155.786 1434.69 153.486 1435.86 151.237L1438.14 152.412C1436.96 154.661 1435.81 156.936 1434.66 159.236H1434.63ZM1691.42 157.728C1690.32 155.402 1689.19 153.102 1688.09 150.828L1690.4 149.703C1691.52 151.978 1692.65 154.303 1693.74 156.629L1691.44 157.728H1691.42ZM1441.69 145.666L1439.44 144.439C1440.67 142.165 1441.92 139.916 1443.17 137.718L1445.4 138.97C1444.14 141.168 1442.92 143.391 1441.69 145.666ZM1684.64 144.005C1683.47 141.73 1682.29 139.456 1681.09 137.232L1683.34 136.031C1684.54 138.28 1685.72 140.555 1686.92 142.855L1684.64 144.03V144.005ZM1449.23 132.377L1447.03 131.074C1448.36 128.85 1449.69 126.652 1451.05 124.506L1453.22 125.86C1451.89 128.007 1450.56 130.179 1449.23 132.377ZM1677.43 130.537C1676.18 128.288 1674.9 126.09 1673.6 123.918L1675.8 122.615C1677.1 124.812 1678.38 127.036 1679.63 129.285L1677.41 130.537H1677.43ZM1457.36 119.446L1455.24 118.04C1456.67 115.868 1458.1 113.747 1459.56 111.677L1461.66 113.134C1460.23 115.204 1458.79 117.299 1457.36 119.446ZM1669.66 117.401C1668.28 115.229 1666.9 113.083 1665.52 110.987L1667.64 109.556C1669.05 111.677 1670.45 113.824 1671.83 116.021L1669.66 117.376V117.401ZM1466.13 106.975L1464.09 105.442C1465.65 103.372 1467.21 101.327 1468.79 99.3593L1470.78 100.944C1469.22 102.912 1467.67 104.905 1466.13 106.975ZM1661.15 104.752C1659.67 102.682 1658.13 100.637 1656.6 98.6438L1658.62 97.0849C1660.18 99.1038 1661.71 101.148 1663.22 103.269L1661.15 104.752ZM1475.64 95.0916L1473.7 93.4305C1475.39 91.4627 1477.1 89.5461 1478.84 87.6805L1480.7 89.4183C1478.99 91.2583 1477.3 93.1494 1475.64 95.0916ZM1651.82 92.7149C1650.15 90.7472 1648.44 88.8305 1646.78 87.0161L1648.65 85.2783C1650.36 87.1183 1652.07 89.0605 1653.76 91.0538L1651.82 92.7149ZM1486.02 83.975L1484.23 82.1606C1486.1 80.3206 1487.99 78.5573 1489.86 76.8962L1491.54 78.8128C1489.7 80.4483 1487.84 82.1861 1486.02 84.0005V83.975ZM1641.46 81.5728C1639.62 79.7839 1637.76 78.0461 1635.89 76.4362L1637.58 74.5195C1639.47 76.1806 1641.39 77.9439 1643.25 79.7584L1641.46 81.5983V81.5728ZM1497.32 73.9062L1495.74 71.9128C1497.76 70.3029 1499.83 68.744 1501.9 67.2618L1503.38 69.3573C1501.36 70.7884 1499.34 72.3217 1497.35 73.9062H1497.32ZM1630.03 71.6317C1628.01 70.0729 1625.94 68.5907 1623.9 67.2107L1625.33 65.0896C1627.43 66.4951 1629.55 68.0029 1631.59 69.6129L1630.03 71.6317ZM1509.67 65.1918L1508.32 63.0196C1510.51 61.6651 1512.76 60.3618 1515.01 59.1607L1516.21 61.4096C1514.02 62.5851 1511.82 63.8374 1509.67 65.1662V65.1918ZM1617.48 63.224C1615.31 61.9718 1613.06 60.7963 1610.81 59.6974L1611.91 57.3974C1614.21 58.4963 1616.51 59.7229 1618.76 61.0007L1617.48 63.224ZM1522.99 58.1385L1521.94 55.813C1524.29 54.7652 1526.7 53.7941 1529.1 52.9508L1529.97 55.353C1527.64 56.1963 1525.29 57.1163 1522.99 58.1385ZM1603.88 56.7074C1601.55 55.7874 1599.18 54.9696 1596.77 54.2285L1597.51 51.7752C1599.97 52.5419 1602.42 53.3852 1604.8 54.3307L1603.85 56.7074H1603.88ZM1537.13 53.0785L1536.44 50.6252C1538.92 49.9352 1541.45 49.3474 1543.95 48.8619L1544.44 51.3663C1541.99 51.8519 1539.51 52.4141 1537.1 53.0785H1537.13ZM1589.46 52.2608C1587.06 51.6985 1584.55 51.2385 1582.05 50.8297L1582.43 48.2997C1584.99 48.7086 1587.54 49.1941 1590.02 49.7563L1589.46 52.2352V52.2608ZM1551.91 50.1908L1551.6 47.6608C1554.15 47.3541 1556.74 47.1497 1559.32 47.0475L1559.42 49.603C1556.92 49.7052 1554.36 49.9097 1551.88 50.2163L1551.91 50.1908ZM1574.56 49.9352C1572.08 49.7308 1569.55 49.5774 1567.01 49.5263L1567.07 46.9708C1569.65 47.0219 1572.23 47.1752 1574.76 47.3797L1574.53 49.9352H1574.56Z" fill="#CBE3FE"/>
<path d="M1.28125 322.79L95.4916 232.835L255.841 482.435L388.068 374.412L671.901 751.226L847.155 621.073L1087.07 245.587L1300.98 83.5661L1525.14 183.309L1738.2 14.2855L1918.72 195.396V1163H1.28125V322.79Z" fill="url(#paint0_linear_1734_7869)"/>
<path d="M95.4908 240.042C99.4726 240.042 102.7 236.815 102.7 232.835C102.7 228.855 99.4726 225.628 95.4908 225.628C91.5091 225.628 88.2812 228.855 88.2812 232.835C88.2812 236.815 91.5091 240.042 95.4908 240.042Z" fill="#B7D4FB"/>
<path d="M95.4881 247.044C87.6393 247.044 81.2734 240.655 81.2734 232.835C81.2734 225.015 87.6649 218.626 95.4881 218.626C103.311 218.626 109.703 225.015 109.703 232.835C109.703 240.655 103.311 247.044 95.4881 247.044ZM95.4881 220.747C88.8409 220.747 83.421 226.165 83.421 232.81C83.421 239.454 88.8409 244.872 95.4881 244.872C102.135 244.872 107.555 239.454 107.555 232.81C107.555 226.165 102.135 220.747 95.4881 220.747Z" fill="#B7D4FB"/>
<path d="M263.052 482.435C263.052 486.421 259.831 489.641 255.842 489.641C251.854 489.641 248.633 486.421 248.633 482.435C248.633 478.448 251.854 475.228 255.842 475.228C259.831 475.228 263.052 478.448 263.052 482.435Z" fill="#B7D4FB"/>
<path d="M255.84 496.643C247.991 496.643 241.625 490.255 241.625 482.435C241.625 474.615 248.016 468.226 255.84 468.226C263.663 468.226 270.054 474.615 270.054 482.435C270.054 490.255 263.663 496.643 255.84 496.643ZM255.84 470.347C249.193 470.347 243.773 475.765 243.773 482.409C243.773 489.053 249.193 494.471 255.84 494.471C262.487 494.471 267.907 489.053 267.907 482.409C267.907 475.765 262.487 470.347 255.84 470.347Z" fill="#B7D4FB"/>
<path d="M388.069 381.619C392.051 381.619 395.279 378.392 395.279 374.412C395.279 370.432 392.051 367.205 388.069 367.205C384.087 367.205 380.859 370.432 380.859 374.412C380.859 378.392 384.087 381.619 388.069 381.619Z" fill="#B7D4FB"/>
<path d="M388.066 388.621C380.217 388.621 373.852 382.232 373.852 374.412C373.852 366.592 380.243 360.203 388.066 360.203C395.889 360.203 402.281 366.592 402.281 374.412C402.281 382.232 395.889 388.621 388.066 388.621ZM388.066 362.324C381.419 362.324 375.999 367.742 375.999 374.386C375.999 381.031 381.419 386.449 388.066 386.449C394.713 386.449 400.133 381.031 400.133 374.386C400.133 367.742 394.713 362.324 388.066 362.324Z" fill="#B7D4FB"/>
<path d="M671.897 758.407C675.879 758.407 679.107 755.181 679.107 751.201C679.107 747.22 675.879 743.994 671.897 743.994C667.915 743.994 664.688 747.22 664.688 751.201C664.688 755.181 667.915 758.407 671.897 758.407Z" fill="#B7D4FB"/>
<path d="M671.894 765.409C664.046 765.409 657.68 759.02 657.68 751.201C657.68 743.381 664.071 736.992 671.894 736.992C679.717 736.992 686.109 743.381 686.109 751.201C686.109 759.02 679.717 765.409 671.894 765.409ZM671.894 739.113C665.247 739.113 659.827 744.531 659.827 751.175C659.827 757.819 665.247 763.237 671.894 763.237C678.541 763.237 683.961 757.819 683.961 751.175C683.961 744.531 678.541 739.113 671.894 739.113Z" fill="#B7D4FB"/>
<path d="M847.155 628.151C851.137 628.151 854.364 624.925 854.364 620.945C854.364 616.965 851.137 613.738 847.155 613.738C843.173 613.738 839.945 616.965 839.945 620.945C839.945 624.925 843.173 628.151 847.155 628.151Z" fill="#B7D4FB"/>
<path d="M847.152 635.154C839.303 635.154 832.938 628.765 832.938 620.945C832.938 613.125 839.329 606.736 847.152 606.736C854.975 606.736 861.367 613.125 861.367 620.945C861.367 628.765 854.975 635.154 847.152 635.154ZM847.152 608.857C840.505 608.857 835.085 614.275 835.085 620.919C835.085 627.564 840.505 632.981 847.152 632.981C853.799 632.981 859.219 627.564 859.219 620.919C859.219 614.275 853.799 608.857 847.152 608.857Z" fill="#B7D4FB"/>
<path d="M1087.09 252.768C1091.07 252.768 1094.3 249.542 1094.3 245.562C1094.3 241.582 1091.07 238.355 1087.09 238.355C1083.11 238.355 1079.88 241.582 1079.88 245.562C1079.88 249.542 1083.11 252.768 1087.09 252.768Z" fill="#B7D4FB"/>
<path d="M1087.09 259.796C1079.24 259.796 1072.88 253.407 1072.88 245.587C1072.88 237.767 1079.27 231.378 1087.09 231.378C1094.91 231.378 1101.3 237.767 1101.3 245.587C1101.3 253.407 1094.91 259.796 1087.09 259.796ZM1087.09 233.5C1080.44 233.5 1075.02 238.917 1075.02 245.562C1075.02 252.206 1080.44 257.624 1087.09 257.624C1093.74 257.624 1099.16 252.206 1099.16 245.562C1099.16 238.917 1093.74 233.5 1087.09 233.5Z" fill="#B7D4FB"/>
<path d="M1300.92 90.7727C1304.9 90.7727 1308.13 87.5462 1308.13 83.5661C1308.13 79.586 1304.9 76.3595 1300.92 76.3595C1296.94 76.3595 1293.71 79.586 1293.71 83.5661C1293.71 87.5462 1296.94 90.7727 1300.92 90.7727Z" fill="#B7D4FB"/>
<path d="M1300.92 97.7749C1293.07 97.7749 1286.7 91.386 1286.7 83.5661C1286.7 75.7461 1293.09 69.3573 1300.92 69.3573C1308.74 69.3573 1315.13 75.7461 1315.13 83.5661C1315.13 91.386 1308.74 97.7749 1300.92 97.7749ZM1300.92 71.4784C1294.27 71.4784 1288.85 76.8961 1288.85 83.5405C1288.85 90.1849 1294.27 95.6027 1300.92 95.6027C1307.56 95.6027 1312.98 90.1849 1312.98 83.5405C1312.98 76.8961 1307.56 71.4784 1300.92 71.4784Z" fill="#B7D4FB"/>
<path d="M1532.29 183.334C1532.29 187.321 1529.07 190.541 1525.08 190.541C1521.1 190.541 1517.88 187.321 1517.88 183.334C1517.88 179.348 1521.1 176.128 1525.08 176.128C1529.07 176.128 1532.29 179.348 1532.29 183.334Z" fill="#B7D4FB"/>
<path d="M1525.08 197.543C1517.23 197.543 1510.87 191.154 1510.87 183.334C1510.87 175.514 1517.26 169.126 1525.08 169.126C1532.91 169.126 1539.3 175.514 1539.3 183.334C1539.3 191.154 1532.91 197.543 1525.08 197.543ZM1525.08 171.247C1518.43 171.247 1513.01 176.664 1513.01 183.309C1513.01 189.953 1518.43 195.371 1525.08 195.371C1531.73 195.371 1537.15 189.953 1537.15 183.309C1537.15 176.664 1531.73 171.247 1525.08 171.247Z" fill="#B7D4FB"/>
<path d="M1738.26 21.4154C1742.24 21.4154 1745.47 18.1889 1745.47 14.2088C1745.47 10.2287 1742.24 7.00217 1738.26 7.00217C1734.27 7.00217 1731.05 10.2287 1731.05 14.2088C1731.05 18.1889 1734.27 21.4154 1738.26 21.4154Z" fill="#B7D4FB"/>
<path d="M1738.25 28.4431C1730.4 28.4431 1724.04 22.0543 1724.04 14.2343C1724.04 6.41439 1730.43 0.0255432 1738.25 0.0255432C1746.08 0.0255432 1752.47 6.41439 1752.47 14.2343C1752.47 22.0543 1746.08 28.4431 1738.25 28.4431ZM1738.25 2.14664C1731.61 2.14664 1726.19 7.56438 1726.19 14.2088C1726.19 20.8532 1731.61 26.2709 1738.25 26.2709C1744.9 26.2709 1750.32 20.8532 1750.32 14.2088C1750.32 7.56438 1744.9 2.14664 1738.25 2.14664Z" fill="#B7D4FB"/>
<path d="M1.28125 322.79L95.4916 232.835L255.841 482.435L388.068 374.412L671.901 751.226L847.155 621.073L1087.07 245.587L1300.98 83.5661L1525.14 183.309L1738.2 14.2855L1918.72 195.396" stroke="#B7D4FB" stroke-linecap="round" stroke-linejoin="round"/>
</g>
<defs>
<linearGradient id="paint0_linear_1734_7869" x1="818.956" y1="59.4418" x2="1082.41" y2="1217.97" gradientUnits="userSpaceOnUse">
<stop offset="0.13" stop-color="#B7D4FB" stop-opacity="0.3"/>
<stop offset="0.17" stop-color="#BFD8FB" stop-opacity="0.27"/>
<stop offset="0.3" stop-color="#DAE9FC" stop-opacity="0.15"/>
<stop offset="0.43" stop-color="#EEF5FE" stop-opacity="0.07"/>
<stop offset="0.56" stop-color="#FAFCFE" stop-opacity="0.02"/>
<stop offset="0.68" stop-color="white" stop-opacity="0"/>
</linearGradient>
<clipPath id="clip0_1734_7869">
<rect width="1920" height="919" fill="white"/>
</clipPath>
</defs>
</svg>
