<svg width="165" height="53" viewBox="0 0 165 53" fill="none" xmlns="http://www.w3.org/2000/svg">
<path d="M146.3 52.1867L163.896 38.1093C164.538 37.5041 164.928 36.6803 164.991 35.8008C165.054 34.9214 164.784 34.0504 164.236 33.3602C163.687 32.67 162.899 32.2108 162.028 32.0736C161.157 31.9364 160.267 32.1311 159.532 32.6192L147.637 42.1214L147.637 10.7289C147.637 7.92875 146.525 5.24328 144.545 3.26327C142.565 1.28326 139.879 0.170897 137.079 0.170897L4.45792 0.170897C3.52454 0.170896 2.62938 0.541683 1.96938 1.20169C1.30937 1.86169 0.938583 2.75685 0.938583 3.69023C0.938583 4.62362 1.30937 5.51878 1.96938 6.17878C2.62938 6.83878 3.52454 7.20957 4.45792 7.20957L137.079 7.20957C138.012 7.20957 138.908 7.58036 139.568 8.24036C140.228 8.90036 140.598 9.79552 140.598 10.7289L140.598 42.1214L128.703 32.6192C127.974 32.0437 127.046 31.78 126.123 31.8855C125.2 31.991 124.357 32.4571 123.776 33.1823C123.279 33.8015 123.006 34.5704 123.002 35.3643C123.004 35.8929 123.126 36.4142 123.357 36.8894C123.589 37.3646 123.924 37.7816 124.339 38.1093L141.936 52.1867C142.557 52.6777 143.326 52.9448 144.118 52.9448C144.91 52.9448 145.678 52.6777 146.3 52.1867Z" fill="#596CFF"/>
</svg>
