<svg width="28" height="28" viewBox="0 0 28 28" fill="none" xmlns="http://www.w3.org/2000/svg">
<path d="M16.875 17.1875C17.0469 17.4062 17.0312 17.7188 16.8125 17.8906C16.7188 17.9688 16.6094 18 16.5 18C16.3438 18 16.2031 17.9531 16.1094 17.8281L14 15.2812L11.875 17.8125C11.7812 17.9375 11.6406 18 11.5 18C11.375 18 11.2656 17.9531 11.1719 17.875C10.9531 17.7031 10.9375 17.3906 11.1094 17.1719L13.3438 14.5L11.1094 11.8281C10.9375 11.6094 10.9531 11.2969 11.1719 11.125C11.3906 10.9531 11.7031 10.9688 11.875 11.1875L14 13.7188L16.1094 11.1875C16.2812 10.9688 16.5938 10.9531 16.8125 11.125C17.0312 11.2969 17.0469 11.6094 16.875 11.8281L14.6406 14.5L16.875 17.1875Z" fill="#F5365C"/>
<rect x="0.5" y="0.5" width="27" height="27" rx="13.5" stroke="#F5365C"/>
</svg>
