<svg width="28" height="28" viewBox="0 0 28 28" fill="none" xmlns="http://www.w3.org/2000/svg">
<path d="M13.3125 14.0156C13.4062 14.0156 13.5 13.9219 13.5 13.8281V13.0781C13.5 12.9688 13.4062 12.8906 13.3125 12.8906H11.7812C12.2812 12.2031 13.0781 11.75 14 11.75C15.5156 11.75 16.75 12.9844 16.75 14.5C16.75 16.0312 15.5156 17.25 14 17.25C13.2969 17.25 12.6562 17 12.1719 16.5625C12.0938 16.5 11.9844 16.5 11.9219 16.5781L11.3906 17.1094C11.3125 17.1875 11.3125 17.3125 11.3906 17.375C12.0781 18 13 18.375 14 18.375C16.1406 18.375 17.875 16.6562 17.875 14.5156C17.875 12.375 16.1719 10.6562 14.0312 10.6406C12.875 10.625 11.8281 11.125 11.125 11.9219V10.6875C11.125 10.5938 11.0312 10.5 10.9375 10.5H10.1875C10.0781 10.5 10 10.5938 10 10.6875V13.8281C10 13.9219 10.0781 14.0156 10.1875 14.0156H13.3125Z" fill="#8392AB"/>
<rect x="0.5" y="0.5" width="27" height="27" rx="13.5" stroke="#8392AB"/>
</svg>
